<svg xmlns="http://www.w3.org/2000/svg" xmlns:xlink="http://www.w3.org/1999/xlink" width="500" zoomAndPan="magnify" viewBox="0 0 375 374.999991" height="500" preserveAspectRatio="xMidYMid meet" version="1.0"><defs><clipPath id="fbc2761448"><path d="M 11 112 L 366.851562 112 L 366.851562 314 L 11 314 Z M 11 112 " clip-rule="nonzero"/></clipPath></defs><path d="M 38.898438 176.351562 L 75.605469 176.351562 L 75.605469 142.996094 L 38.898438 142.996094 Z M 38.898438 176.351562 " fill-opacity="1" fill-rule="nonzero"/><g clip-path="url(#fbc2761448)"><path d="M 362.140625 173.257812 C 362.96875 171.851562 365.800781 165.839844 366.851562 163.648438 L 359.472656 158.644531 L 359.472656 158.660156 C 351.472656 153.210938 333.03125 151.242188 318.867188 153.9375 C 317.03125 140.449219 309.59375 128.707031 296.039062 118.152344 L 288.261719 112.925781 L 283.09375 120.785156 C 272.871094 136.40625 270.101562 162.125 281.046875 179.09375 C 276.21875 181.726562 266.722656 185.324219 254.160156 185.105469 L 12.691406 185.105469 C 7.863281 213.636719 15.921875 250.710938 37.136719 276.160156 C 57.726562 300.828125 88.613281 313.355469 128.996094 313.355469 C 216.429688 313.355469 281.136719 272.636719 311.417969 198.652344 C 323.296875 198.875 348.972656 198.710938 362.140625 173.257812 Z M 362.140625 173.257812 " fill-opacity="1" fill-rule="nonzero"/></g><path d="M 82.230469 142.996094 L 118.9375 142.996094 L 118.9375 176.351562 L 82.230469 176.351562 Z M 82.230469 142.996094 " fill-opacity="1" fill-rule="nonzero"/><path d="M 125.621094 142.996094 L 162.328125 142.996094 L 162.328125 176.351562 L 125.621094 176.351562 Z M 125.621094 142.996094 " fill-opacity="1" fill-rule="nonzero"/><path d="M 212.429688 142.996094 L 249.140625 142.996094 L 249.140625 176.351562 L 212.429688 176.351562 Z M 212.429688 142.996094 " fill-opacity="1" fill-rule="nonzero"/><path d="M 82.230469 102.484375 L 118.9375 102.484375 L 118.9375 136.242188 L 82.230469 136.242188 Z M 82.230469 102.484375 " fill-opacity="1" fill-rule="nonzero"/><path  d="M 168.996094 143.054688 L 205.703125 143.054688 L 205.703125 176.414062 L 168.996094 176.414062 Z M 168.996094 143.054688 " fill-opacity="1" fill-rule="nonzero"/><path  d="M 168.996094 102.484375 L 205.703125 102.484375 L 205.703125 136.242188 L 168.996094 136.242188 Z M 168.996094 102.484375 " fill-opacity="1" fill-rule="nonzero"/><path  d="M 168.996094 61.652344 L 205.703125 61.652344 L 205.703125 95.75 L 168.996094 95.75 Z M 168.996094 61.652344 " fill-opacity="1" fill-rule="nonzero"/><path  d="M 125.621094 102.484375 L 162.328125 102.484375 L 162.328125 136.242188 L 125.621094 136.242188 Z M 125.621094 102.484375 " fill-opacity="1" fill-rule="nonzero"/></svg>