<svg xmlns="http://www.w3.org/2000/svg" xmlns:xlink="http://www.w3.org/1999/xlink" width="500" zoomAndPan="magnify" viewBox="0 0 375 374.999991" height="500" preserveAspectRatio="xMidYMid meet" version="1.0"><defs><clipPath id="81abb07838"><path d="M 105 12.152344 L 270 12.152344 L 270 363 L 105 363 Z M 105 12.152344 " clip-rule="nonzero"/></clipPath></defs><g clip-path="url(#81abb07838)"><path d="M 217.78125 51.796875 C 203.117188 34.398438 190.488281 16.730469 187.910156 13.058594 C 187.847656 12.996094 187.773438 12.945312 187.691406 12.910156 C 187.609375 12.875 187.523438 12.855469 187.433594 12.855469 C 187.34375 12.855469 187.257812 12.875 187.175781 12.910156 C 187.09375 12.945312 187.019531 12.996094 186.957031 13.058594 C 184.378906 16.730469 171.75 34.398438 157.085938 51.796875 C 31.21875 212.328125 176.910156 320.664062 176.910156 320.664062 L 178.132812 321.480469 C 179.21875 338.195312 181.933594 362.257812 181.933594 362.257812 L 192.796875 362.257812 C 192.796875 362.257812 195.511719 338.332031 196.597656 321.480469 L 197.820312 320.527344 C 197.957031 320.664062 343.648438 212.328125 217.78125 51.796875 Z M 187.367188 318.214844 C 187.367188 318.214844 180.847656 312.644531 179.082031 309.789062 L 179.082031 309.515625 L 186.957031 134.714844 C 186.957031 134.171875 187.773438 134.171875 187.773438 134.714844 L 195.648438 309.515625 L 195.648438 309.789062 C 193.882812 312.644531 187.367188 318.214844 187.367188 318.214844 Z M 187.367188 318.214844 " fill-opacity="1" fill-rule="nonzero"/></g></svg>