<svg xmlns="http://www.w3.org/2000/svg" xmlns:xlink="http://www.w3.org/1999/xlink" width="500" zoomAndPan="magnify" viewBox="0 0 375 374.999991" height="500" preserveAspectRatio="xMidYMid meet" version="1.0"><defs><clipPath id="026dcdcdc0"><path d="M 6 136.261719 L 292 136.261719 L 292 239 L 6 239 Z M 6 136.261719 " clip-rule="nonzero"/></clipPath></defs><path d="M 339.425781 172.53125 C 338.542969 172.53125 337.6875 172.710938 336.929688 173.140625 L 312.929688 187 C 311.378906 187.894531 310.433594 189.585938 310.433594 191.382812 L 310.433594 219.050781 C 310.433594 220.847656 311.378906 222.535156 312.929688 223.429688 L 319.199219 227.042969 C 322.242188 228.542969 323.367188 228.519531 324.753906 228.519531 C 329.261719 228.519531 331.832031 225.785156 331.832031 221.03125 L 331.832031 193.730469 C 331.832031 193.34375 331.5 193.070312 331.121094 193.070312 L 328.113281 193.070312 C 327.730469 193.070312 327.402344 193.351562 327.402344 193.730469 L 327.402344 221.042969 C 327.402344 223.148438 325.207031 225.269531 321.644531 223.488281 L 315.128906 219.667969 C 314.898438 219.542969 314.722656 219.3125 314.722656 219.054688 L 314.722656 191.386719 C 314.722656 191.125 314.898438 190.859375 315.128906 190.726562 L 339.078125 176.917969 C 339.300781 176.789062 339.566406 176.789062 339.789062 176.917969 L 363.738281 190.726562 C 363.964844 190.863281 364.144531 191.117188 364.144531 191.386719 L 364.144531 219.054688 C 364.144531 219.320312 364.011719 219.589844 363.789062 219.71875 L 339.789062 233.527344 C 339.578125 233.648438 339.292969 233.648438 339.078125 233.527344 L 332.910156 229.859375 C 332.726562 229.75 332.476562 229.757812 332.300781 229.859375 C 330.597656 230.824219 330.277344 230.933594 328.683594 231.488281 C 328.289062 231.625 327.691406 231.839844 328.886719 232.507812 L 336.9375 237.253906 C 337.703125 237.695312 338.558594 237.914062 339.433594 237.914062 C 340.324219 237.914062 341.164062 237.703125 341.933594 237.253906 L 365.929688 223.445312 C 367.484375 222.539062 368.425781 220.859375 368.425781 219.0625 L 368.425781 191.394531 C 368.425781 189.597656 367.484375 187.910156 365.929688 187.011719 L 341.933594 173.152344 C 341.179688 172.726562 340.316406 172.542969 339.433594 172.542969 Z M 345.847656 192.300781 C 339.011719 192.300781 334.941406 195.207031 334.941406 200.042969 C 334.941406 205.285156 338.980469 206.734375 345.539062 207.382812 C 353.386719 208.148438 354 209.300781 354 210.847656 C 354 213.523438 351.863281 214.667969 346.816406 214.667969 C 340.472656 214.667969 339.078125 213.085938 338.613281 209.921875 C 338.554688 209.585938 338.296875 209.3125 337.949219 209.3125 L 334.832031 209.3125 C 334.636719 209.316406 334.472656 209.386719 334.332031 209.523438 C 334.195312 209.664062 334.125 209.828125 334.121094 210.023438 C 334.121094 214.0625 336.316406 218.839844 346.808594 218.839844 C 354.402344 218.839844 358.78125 215.863281 358.78125 210.636719 C 358.78125 205.464844 355.242188 204.070312 347.878906 203.09375 C 340.441406 202.101562 339.726562 201.628906 339.726562 199.882812 C 339.726562 198.445312 340.328125 196.519531 345.839844 196.519531 C 350.761719 196.519531 352.582031 197.582031 353.328125 200.902344 C 353.394531 201.214844 353.667969 201.46875 353.992188 201.46875 L 357.109375 201.46875 C 357.300781 201.46875 357.484375 201.351562 357.617188 201.214844 C 357.746094 201.066406 357.839844 200.902344 357.820312 200.703125 C 357.339844 194.988281 353.527344 192.296875 345.847656 192.296875 Z M 345.847656 192.300781 " fill-opacity="1" fill-rule="nonzero"/><g clip-path="url(#026dcdcdc0)"><path d="M 198.339844 136.261719 C 198.066406 136.261719 197.8125 136.328125 197.574219 136.464844 C 197.339844 136.601562 197.152344 136.789062 197.015625 137.027344 C 196.882812 137.261719 196.8125 137.515625 196.8125 137.789062 L 196.8125 176.769531 C 196.8125 177.148438 196.632812 177.492188 196.300781 177.683594 C 195.945312 177.894531 195.585938 177.894531 195.230469 177.683594 L 188.863281 174.015625 C 188.390625 173.742188 187.878906 173.605469 187.332031 173.605469 C 186.789062 173.605469 186.277344 173.742188 185.804688 174.015625 L 160.382812 188.691406 C 159.429688 189.238281 158.851562 190.292969 158.851562 191.390625 L 158.851562 220.738281 C 158.851562 221.285156 158.988281 221.796875 159.261719 222.269531 C 159.535156 222.742188 159.90625 223.113281 160.382812 223.386719 L 185.804688 238.0625 C 186.277344 238.335938 186.789062 238.472656 187.335938 238.472656 C 187.882812 238.472656 188.390625 238.335938 188.863281 238.0625 L 214.289062 223.386719 C 214.761719 223.113281 215.136719 222.742188 215.410156 222.269531 C 215.683594 221.796875 215.816406 221.285156 215.816406 220.738281 L 215.816406 147.570312 C 215.816406 146.457031 215.210938 145.414062 214.238281 144.871094 L 199.105469 136.410156 C 198.867188 136.277344 198.601562 136.253906 198.339844 136.257812 Z M 34.78125 172.894531 C 34.296875 172.914062 33.84375 173 33.40625 173.25 L 7.984375 187.925781 C 7.507812 188.199219 7.136719 188.570312 6.863281 189.042969 C 6.589844 189.519531 6.453125 190.027344 6.453125 190.574219 L 6.507812 229.960938 C 6.507812 230.511719 6.789062 231.019531 7.269531 231.285156 C 7.742188 231.570312 8.328125 231.570312 8.800781 231.285156 L 23.878906 222.625 C 24.835938 222.058594 25.460938 221.070312 25.460938 219.976562 L 25.460938 201.578125 C 25.460938 200.480469 26.039062 199.476562 26.988281 198.929688 L 33.410156 195.210938 C 33.882812 194.9375 34.390625 194.800781 34.9375 194.804688 C 35.484375 194.800781 35.996094 194.9375 36.46875 195.210938 L 42.882812 198.929688 C 43.835938 199.472656 44.414062 200.480469 44.414062 201.578125 L 44.414062 219.972656 C 44.414062 221.066406 45.050781 222.058594 45.992188 222.621094 L 61.074219 231.28125 C 61.546875 231.566406 62.132812 231.566406 62.601562 231.28125 C 63.070312 231.011719 63.367188 230.503906 63.367188 229.957031 L 63.417969 190.570312 C 63.421875 190.023438 63.285156 189.515625 63.011719 189.039062 C 62.738281 188.566406 62.363281 188.195312 61.890625 187.921875 L 36.464844 173.253906 C 36.035156 173 35.578125 172.917969 35.089844 172.898438 L 34.785156 172.898438 Z M 263.25 173.25 C 262.703125 173.25 262.191406 173.386719 261.71875 173.660156 L 236.296875 188.335938 C 235.347656 188.882812 234.765625 189.886719 234.765625 190.984375 L 234.765625 220.332031 C 234.765625 221.433594 235.386719 222.433594 236.34375 222.980469 L 261.566406 237.355469 C 262.496094 237.886719 263.632812 237.925781 264.570312 237.40625 L 279.859375 228.894531 C 280.34375 228.625 280.671875 228.125 280.671875 227.570312 C 280.671875 227.019531 280.386719 226.519531 279.90625 226.246094 L 254.328125 211.570312 C 253.851562 211.300781 253.515625 210.746094 253.515625 210.195312 L 253.515625 201.019531 C 253.515625 200.46875 253.855469 199.96875 254.328125 199.695312 L 262.277344 195.109375 C 262.75 194.835938 263.332031 194.835938 263.804688 195.109375 L 271.773438 199.695312 C 272.011719 199.832031 272.195312 200.015625 272.332031 200.253906 C 272.46875 200.492188 272.539062 200.746094 272.539062 201.019531 L 272.539062 208.253906 C 272.535156 208.527344 272.605469 208.78125 272.742188 209.019531 C 272.878906 209.253906 273.0625 209.441406 273.300781 209.578125 C 273.777344 209.851562 274.355469 209.855469 274.832031 209.578125 L 290.0625 200.710938 C 291.007812 200.164062 291.59375 199.15625 291.59375 198.0625 L 291.59375 190.980469 C 291.59375 190.433594 291.457031 189.925781 291.183594 189.453125 C 290.910156 188.980469 290.539062 188.605469 290.0625 188.332031 L 264.792969 173.65625 C 264.320312 173.382812 263.808594 173.25 263.261719 173.25 Z M 187.226562 195.160156 C 187.371094 195.160156 187.507812 195.195312 187.636719 195.261719 L 196.347656 200.308594 C 196.585938 200.445312 196.757812 200.695312 196.757812 200.96875 L 196.757812 211.058594 C 196.757812 211.332031 196.585938 211.585938 196.347656 211.71875 L 187.636719 216.765625 C 187.398438 216.898438 187.109375 216.898438 186.871094 216.765625 L 178.160156 211.71875 C 177.921875 211.582031 177.75 211.332031 177.75 211.058594 L 177.75 200.972656 C 177.75 200.699219 177.921875 200.449219 178.160156 200.308594 L 186.871094 195.265625 C 186.992188 195.199219 187.09375 195.164062 187.226562 195.164062 Z M 187.226562 195.160156 " fill-opacity="1" fill-rule="nonzero"/></g><path d="M 111.15625 173.097656 C 110.613281 173.097656 110.101562 173.234375 109.628906 173.503906 L 84.203125 188.128906 C 83.253906 188.675781 82.675781 189.734375 82.675781 190.828125 L 82.675781 220.179688 C 82.671875 220.722656 82.808594 221.234375 83.082031 221.707031 C 83.355469 222.179688 83.730469 222.554688 84.203125 222.828125 L 109.628906 237.5 C 110.101562 237.773438 110.609375 237.914062 111.15625 237.914062 C 111.703125 237.914062 112.210938 237.773438 112.683594 237.5 L 138.109375 222.828125 C 138.585938 222.554688 138.957031 222.179688 139.230469 221.707031 C 139.503906 221.234375 139.640625 220.722656 139.640625 220.175781 L 139.640625 190.832031 C 139.640625 189.734375 139.0625 188.679688 138.109375 188.128906 L 112.683594 173.507812 C 112.210938 173.234375 111.703125 173.097656 111.15625 173.097656 Z M 263.199219 199.289062 C 263.097656 199.289062 262.984375 199.289062 262.894531 199.335938 L 258.003906 202.191406 C 257.800781 202.300781 257.699219 202.472656 257.695312 202.699219 L 257.695312 208.304688 C 257.695312 208.515625 257.820312 208.710938 258.003906 208.816406 L 262.894531 211.617188 C 263.082031 211.734375 263.265625 211.734375 263.453125 211.617188 L 268.34375 208.816406 C 268.527344 208.710938 268.648438 208.515625 268.648438 208.304688 L 268.648438 202.699219 C 268.648438 202.488281 268.527344 202.296875 268.34375 202.191406 L 263.453125 199.335938 C 263.363281 199.28125 263.300781 199.285156 263.199219 199.285156 Z M 263.199219 199.289062 " fill-opacity="1" fill-rule="nonzero"/></svg>