<svg xmlns="http://www.w3.org/2000/svg" xmlns:xlink="http://www.w3.org/1999/xlink" width="500" zoomAndPan="magnify" viewBox="0 0 375 374.999991" height="500" preserveAspectRatio="xMidYMid meet" version="1.0"><defs><clipPath id="13e22fccb1"><path d="M 37.5 160.746094 L 91.011719 160.746094 L 91.011719 214.253906 L 37.5 214.253906 Z M 37.5 160.746094 " clip-rule="nonzero"/></clipPath><clipPath id="c946516551"><path d="M 64.253906 160.746094 C 49.480469 160.746094 37.5 172.722656 37.5 187.5 C 37.5 202.277344 49.480469 214.253906 64.253906 214.253906 C 79.03125 214.253906 91.011719 202.277344 91.011719 187.5 C 91.011719 172.722656 79.03125 160.746094 64.253906 160.746094 Z M 64.253906 160.746094 " clip-rule="nonzero"/></clipPath><clipPath id="e312904152"><path d="M 283.988281 160.746094 L 337.5 160.746094 L 337.5 214.253906 L 283.988281 214.253906 Z M 283.988281 160.746094 " clip-rule="nonzero"/></clipPath><clipPath id="6d5b31119e"><path d="M 310.746094 160.746094 C 295.96875 160.746094 283.988281 172.722656 283.988281 187.5 C 283.988281 202.277344 295.96875 214.253906 310.746094 214.253906 C 325.519531 214.253906 337.5 202.277344 337.5 187.5 C 337.5 172.722656 325.519531 160.746094 310.746094 160.746094 Z M 310.746094 160.746094 " clip-rule="nonzero"/></clipPath><clipPath id="c3fffc497e"><path d="M 136.253906 136.253906 L 238.746094 136.253906 L 238.746094 238.746094 L 136.253906 238.746094 Z M 136.253906 136.253906 " clip-rule="nonzero"/></clipPath><clipPath id="9bb48e464d"><path d="M 187.5 136.253906 C 159.199219 136.253906 136.253906 159.199219 136.253906 187.5 C 136.253906 215.800781 159.199219 238.746094 187.5 238.746094 C 215.800781 238.746094 238.746094 215.800781 238.746094 187.5 C 238.746094 159.199219 215.800781 136.253906 187.5 136.253906 Z M 187.5 136.253906 " clip-rule="nonzero"/></clipPath></defs><g clip-path="url(#13e22fccb1)"><g clip-path="url(#c946516551)"><path fill="#daba02" d="M 37.5 160.746094 L 91.011719 160.746094 L 91.011719 214.253906 L 37.5 214.253906 Z M 37.5 160.746094 " fill-opacity="1" fill-rule="nonzero"/></g></g><g clip-path="url(#e312904152)"><g clip-path="url(#6d5b31119e)"><path fill="#daba02" d="M 283.988281 160.746094 L 337.5 160.746094 L 337.5 214.253906 L 283.988281 214.253906 Z M 283.988281 160.746094 " fill-opacity="1" fill-rule="nonzero"/></g></g><g clip-path="url(#c3fffc497e)"><g clip-path="url(#9bb48e464d)"><path fill="#daba02" d="M 136.253906 136.253906 L 238.746094 136.253906 L 238.746094 238.746094 L 136.253906 238.746094 Z M 136.253906 136.253906 " fill-opacity="1" fill-rule="nonzero"/></g></g></svg>