<svg xmlns="http://www.w3.org/2000/svg" xmlns:xlink="http://www.w3.org/1999/xlink" width="260" zoomAndPan="magnify" viewBox="0 0 194.87999 97.5" height="130" preserveAspectRatio="xMidYMid meet" version="1.0"><defs><clipPath id="92b032577c"><path d="M 5.289062 30.671875 L 51 30.671875 L 51 75 L 5.289062 75 Z M 5.289062 30.671875 " clip-rule="nonzero"/></clipPath><clipPath id="dec56ad9b8"><path d="M 143.023438 30.671875 L 189 30.671875 L 189 75 L 143.023438 75 Z M 143.023438 30.671875 " clip-rule="nonzero"/></clipPath><clipPath id="13cc3b584d"><path d="M 62.511719 14.71875 L 132 14.71875 L 132 82 L 62.511719 82 Z M 62.511719 14.71875 " clip-rule="nonzero"/></clipPath></defs><g clip-path="url(#92b032577c)"><path fill="#f4f07d" d="M 19.433594 43.730469 C 18.648438 44.863281 5.730469 48.078125 5.511719 50.242188 C 5.304688 52.398438 14.84375 59.046875 16.058594 60.46875 C 17.40625 62.054688 16.273438 73.414062 18.429688 74.425781 C 20.59375 75.441406 29.789062 67.921875 31.953125 67.777344 C 34.035156 67.632812 43.964844 72.96875 45.160156 71.039062 C 46.972656 68.132812 43.488281 58.792969 43.738281 57.144531 C 44.046875 55.132812 51.515625 47.769531 50.691406 45.125 C 49.75 42.121094 37.65625 43.070312 36.152344 42.273438 C 34.878906 41.59375 28.171875 30.933594 26.523438 30.832031 C 23.652344 30.671875 20.574219 42.101562 19.433594 43.730469 Z M 19.433594 43.730469 " fill-opacity="1" fill-rule="nonzero"/></g><path fill="#f4f07d" d="M 43.757812 57.144531 C 44.066406 55.132812 51.535156 47.769531 50.710938 45.125 C 49.769531 42.121094 37.675781 43.070312 36.171875 42.273438 C 35.835938 42.101562 35.148438 41.269531 34.289062 40.125 C 32.214844 51.113281 25.789062 60.597656 16.980469 68.257812 C 17.144531 71.203125 17.425781 73.957031 18.4375 74.425781 C 20.601562 75.441406 29.800781 67.921875 31.964844 67.777344 C 34.046875 67.632812 43.976562 72.96875 45.171875 71.039062 C 46.980469 68.132812 43.503906 58.792969 43.757812 57.144531 Z M 43.757812 57.144531 " fill-opacity="1" fill-rule="nonzero"/><path fill="#fff7d8" d="M 12.164062 51.875 C 10.71875 52.289062 10.109375 50.042969 11.550781 49.628906 C 12.210938 49.4375 12.871094 49.246094 13.53125 49.058594 C 14.980469 48.640625 15.585938 50.886719 14.148438 51.304688 C 13.488281 51.492188 12.828125 51.683594 12.164062 51.875 Z M 18.628906 49.9375 C 20.058594 49.257812 21.5 48.578125 22.929688 47.890625 C 24.285156 47.246094 23.101562 45.234375 21.75 45.878906 C 20.320312 46.558594 18.882812 47.238281 17.453125 47.925781 C 16.101562 48.566406 17.28125 50.578125 18.628906 49.9375 Z M 25.109375 43.050781 C 25.382812 41.746094 25.707031 40.453125 26.089844 39.167969 C 26.511719 37.726562 24.269531 37.109375 23.84375 38.550781 C 23.460938 39.828125 23.136719 41.121094 22.867188 42.4375 C 22.546875 43.894531 24.800781 44.519531 25.109375 43.050781 Z M 25.109375 43.050781 " fill-opacity="1" fill-rule="nonzero"/><g clip-path="url(#dec56ad9b8)"><path fill="#f4f07d" d="M 157.167969 43.730469 C 156.382812 44.863281 143.464844 48.078125 143.246094 50.242188 C 143.039062 52.398438 152.582031 59.046875 153.792969 60.46875 C 155.140625 62.054688 154.011719 73.414062 156.164062 74.425781 C 158.328125 75.441406 167.527344 67.921875 169.6875 67.777344 C 171.769531 67.632812 181.703125 72.96875 182.894531 71.039062 C 184.707031 68.132812 181.222656 58.792969 181.476562 57.144531 C 181.78125 55.132812 189.25 47.769531 188.425781 45.125 C 187.484375 42.121094 175.390625 43.070312 173.890625 42.273438 C 172.613281 41.59375 165.90625 30.933594 164.257812 30.832031 C 161.386719 30.671875 158.308594 42.101562 157.167969 43.730469 Z M 157.167969 43.730469 " fill-opacity="1" fill-rule="nonzero"/></g><path fill="#f4f07d" d="M 181.492188 57.144531 C 181.800781 55.132812 189.269531 47.769531 188.445312 45.125 C 187.503906 42.121094 175.410156 43.070312 173.90625 42.273438 C 173.574219 42.101562 172.882812 41.269531 172.023438 40.125 C 169.953125 51.113281 163.523438 60.597656 154.714844 68.257812 C 154.878906 71.203125 155.160156 73.957031 156.175781 74.425781 C 158.335938 75.441406 167.535156 67.921875 169.699219 67.777344 C 171.78125 67.632812 181.710938 72.96875 182.90625 71.039062 C 184.714844 68.132812 181.238281 58.792969 181.492188 57.144531 Z M 181.492188 57.144531 " fill-opacity="1" fill-rule="nonzero"/><path fill="#fff7d8" d="M 149.902344 51.875 C 148.453125 52.289062 147.847656 50.042969 149.285156 49.628906 C 149.945312 49.4375 150.605469 49.246094 151.269531 49.058594 C 152.714844 48.640625 153.324219 50.886719 151.882812 51.304688 C 151.222656 51.492188 150.5625 51.683594 149.902344 51.875 Z M 156.363281 49.9375 C 157.792969 49.257812 159.234375 48.578125 160.664062 47.890625 C 162.023438 47.246094 160.835938 45.234375 159.488281 45.878906 C 158.058594 46.558594 156.617188 47.238281 155.1875 47.925781 C 153.839844 48.566406 155.015625 50.578125 156.363281 49.9375 Z M 162.84375 43.050781 C 163.117188 41.746094 163.441406 40.453125 163.824219 39.167969 C 164.25 37.726562 162.003906 37.109375 161.578125 38.550781 C 161.199219 39.828125 160.871094 41.121094 160.601562 42.4375 C 160.285156 43.894531 162.539062 44.519531 162.84375 43.050781 Z M 162.84375 43.050781 " fill-opacity="1" fill-rule="nonzero"/><g clip-path="url(#13cc3b584d)"><path fill="#f4f07d" d="M 83.960938 34.527344 C 82.765625 36.242188 63.179688 41.121094 62.851562 44.402344 C 62.535156 47.671875 77 57.753906 78.839844 59.910156 C 80.886719 62.316406 79.171875 79.542969 82.4375 81.082031 C 85.71875 82.617188 99.664062 71.21875 102.941406 70.996094 C 106.101562 70.777344 121.15625 78.867188 122.96875 75.941406 C 125.714844 71.535156 120.429688 57.371094 120.8125 54.871094 C 121.28125 51.820312 132.605469 40.652344 131.355469 36.640625 C 129.925781 32.082031 111.589844 33.523438 109.3125 32.3125 C 107.375 31.285156 97.207031 15.117188 94.707031 14.964844 C 90.355469 14.71875 85.691406 32.054688 83.960938 34.527344 Z M 83.960938 34.527344 " fill-opacity="1" fill-rule="nonzero"/></g><path fill="#f4f07d" d="M 120.839844 54.871094 C 121.308594 51.820312 132.632812 40.652344 131.382812 36.640625 C 129.953125 32.082031 111.617188 33.523438 109.339844 32.3125 C 108.832031 32.054688 107.789062 30.789062 106.484375 29.058594 C 103.339844 45.722656 93.59375 60.105469 80.242188 71.726562 C 80.488281 76.191406 80.914062 80.367188 82.449219 81.082031 C 85.730469 82.617188 99.675781 71.21875 102.957031 70.996094 C 106.113281 70.777344 121.171875 78.867188 122.980469 75.941406 C 125.726562 71.535156 120.457031 57.371094 120.839844 54.871094 Z M 120.839844 54.871094 " fill-opacity="1" fill-rule="nonzero"/><path fill="#fff7d8" d="M 72.9375 46.875 C 70.742188 47.507812 69.824219 44.101562 72.003906 43.46875 C 73.007812 43.179688 74.007812 42.890625 75.011719 42.601562 C 77.207031 41.972656 78.125 45.378906 75.945312 46.011719 C 74.941406 46.296875 73.941406 46.585938 72.9375 46.875 Z M 82.738281 43.9375 C 84.90625 42.90625 87.089844 41.875 89.257812 40.832031 C 91.316406 39.855469 89.519531 36.804688 87.472656 37.78125 C 85.304688 38.8125 83.121094 39.84375 80.953125 40.886719 C 78.910156 41.863281 80.695312 44.910156 82.738281 43.9375 Z M 92.566406 33.496094 C 92.976562 31.515625 93.472656 29.554688 94.046875 27.601562 C 94.695312 25.417969 91.289062 24.484375 90.644531 26.667969 C 90.066406 28.605469 89.574219 30.570312 89.164062 32.5625 C 88.683594 34.773438 92.097656 35.722656 92.566406 33.496094 Z M 92.566406 33.496094 " fill-opacity="1" fill-rule="nonzero"/></svg>