<svg xmlns="http://www.w3.org/2000/svg" xmlns:xlink="http://www.w3.org/1999/xlink" width="350" zoomAndPan="magnify" viewBox="0 0 375 374.999991" height="350" preserveAspectRatio="xMidYMid meet" version="1.0"><defs><clipPath id="3c2001ebb7"><path d="M 28 18.699219 L 182 18.699219 L 182 96 L 28 96 Z M 28 18.699219 " clip-rule="nonzero"/></clipPath><clipPath id="7719441c2f"><path d="M 22.613281 98 L 106 98 L 106 177.699219 L 22.613281 177.699219 Z M 22.613281 98 " clip-rule="nonzero"/></clipPath><clipPath id="524026a814"><path d="M 132 98 L 187.613281 98 L 187.613281 177.699219 L 132 177.699219 Z M 132 98 " clip-rule="nonzero"/></clipPath><clipPath id="4a24cd9bc9"><path d="M 220 106.515625 L 336 106.515625 L 336 264 L 220 264 Z M 220 106.515625 " clip-rule="nonzero"/></clipPath><clipPath id="a6346ad4ea"><path d="M 200 228 L 281 228 L 281 268.515625 L 200 268.515625 Z M 200 228 " clip-rule="nonzero"/></clipPath><clipPath id="6d1eab52fc"><path d="M 29.648438 208.71875 L 187.148438 208.71875 L 187.148438 366.21875 L 29.648438 366.21875 Z M 29.648438 208.71875 " clip-rule="nonzero"/></clipPath></defs><g clip-path="url(#3c2001ebb7)"><path fill="#daba02" d="M 33.636719 24.191406 L 176.472656 24.191406 L 176.472656 40.671875 L 33.636719 40.671875 Z M 33.636719 46.167969 L 176.472656 46.167969 L 176.472656 95.609375 L 181.964844 95.609375 L 181.964844 21.445312 C 181.964844 19.929688 180.730469 18.699219 179.21875 18.699219 L 30.890625 18.699219 C 29.378906 18.699219 28.144531 19.929688 28.144531 21.445312 L 28.144531 95.609375 L 33.636719 95.609375 L 33.636719 46.167969 " fill-opacity="1" fill-rule="nonzero"/></g><path fill="#daba02" d="M 39.128906 35.179688 L 44.625 35.179688 L 44.625 29.683594 L 39.128906 29.683594 L 39.128906 35.179688 " fill-opacity="1" fill-rule="nonzero"/><path fill="#daba02" d="M 50.117188 35.179688 L 55.613281 35.179688 L 55.613281 29.683594 L 50.117188 29.683594 L 50.117188 35.179688 " fill-opacity="1" fill-rule="nonzero"/><path fill="#daba02" d="M 61.105469 35.179688 L 66.597656 35.179688 L 66.597656 29.683594 L 61.105469 29.683594 L 61.105469 35.179688 " fill-opacity="1" fill-rule="nonzero"/><path fill="#daba02" d="M 81.136719 52.464844 L 75.644531 57.957031 C 74.570312 59.03125 74.570312 60.769531 75.644531 61.84375 L 81.136719 67.335938 L 85.023438 63.453125 L 81.46875 59.898438 L 85.023438 56.347656 L 81.136719 52.464844 " fill-opacity="1" fill-rule="nonzero"/><path fill="#daba02" d="M 97.359375 52.765625 L 89.121094 63.753906 L 93.519531 67.035156 L 101.761719 56.046875 L 97.359375 52.765625 " fill-opacity="1" fill-rule="nonzero"/><path fill="#daba02" d="M 109.742188 67.335938 L 115.238281 61.84375 C 116.308594 60.769531 116.308594 59.03125 115.238281 57.957031 L 109.742188 52.464844 L 105.859375 56.347656 L 109.410156 59.898438 L 105.859375 63.453125 L 109.742188 67.335938 " fill-opacity="1" fill-rule="nonzero"/><path fill="#daba02" d="M 85.828125 73.632812 L 74.839844 73.632812 L 74.839844 79.128906 L 85.828125 79.128906 L 85.828125 73.632812 " fill-opacity="1" fill-rule="nonzero"/><path fill="#daba02" d="M 91.320312 79.128906 L 96.8125 79.128906 L 96.8125 73.632812 L 91.320312 73.632812 L 91.320312 79.128906 " fill-opacity="1" fill-rule="nonzero"/><path fill="#daba02" d="M 118.789062 73.632812 L 102.308594 73.632812 L 102.308594 79.128906 L 118.789062 79.128906 L 118.789062 73.632812 " fill-opacity="1" fill-rule="nonzero"/><path fill="#daba02" d="M 135.269531 73.632812 L 124.28125 73.632812 L 124.28125 79.128906 L 135.269531 79.128906 L 135.269531 73.632812 " fill-opacity="1" fill-rule="nonzero"/><path fill="#daba02" d="M 85.828125 90.117188 L 85.828125 84.621094 L 80.332031 84.621094 L 80.332031 90.117188 L 85.828125 90.117188 " fill-opacity="1" fill-rule="nonzero"/><path fill="#daba02" d="M 102.308594 84.621094 L 91.320312 84.621094 L 91.320312 90.117188 L 102.308594 90.117188 L 102.308594 84.621094 " fill-opacity="1" fill-rule="nonzero"/><path fill="#daba02" d="M 113.296875 90.117188 L 113.296875 84.621094 L 107.800781 84.621094 L 107.800781 90.117188 L 113.296875 90.117188 " fill-opacity="1" fill-rule="nonzero"/><path fill="#daba02" d="M 118.789062 90.117188 L 129.777344 90.117188 L 129.777344 84.621094 L 118.789062 84.621094 L 118.789062 90.117188 " fill-opacity="1" fill-rule="nonzero"/><path fill="#daba02" d="M 124.28125 62.648438 L 118.789062 62.648438 L 118.789062 68.140625 L 124.28125 68.140625 L 124.28125 62.648438 " fill-opacity="1" fill-rule="nonzero"/><g clip-path="url(#7719441c2f)"><path fill="#daba02" d="M 72.09375 153.292969 L 28.144531 153.292969 L 28.144531 147.800781 L 99.570312 147.800781 L 99.570312 153.292969 Z M 69.34375 164.28125 L 58.359375 164.28125 L 58.359375 158.785156 L 69.34375 158.785156 Z M 77.585938 172.519531 L 50.117188 172.519531 L 50.117188 169.773438 L 77.585938 169.773438 Z M 99.5625 103.847656 L 99.570312 142.304688 L 28.144531 142.304688 L 28.144531 103.847656 Z M 99.5625 98.355469 L 28.144531 98.355469 C 25.117188 98.355469 22.648438 100.824219 22.648438 103.847656 L 22.648438 153.292969 C 22.648438 156.320312 25.117188 158.785156 28.144531 158.785156 L 52.863281 158.785156 L 52.863281 164.28125 L 47.371094 164.28125 C 45.859375 164.28125 44.625 165.515625 44.625 167.027344 L 44.625 172.519531 L 41.878906 172.519531 L 41.878906 178.015625 L 85.828125 178.015625 L 85.828125 172.519531 L 83.078125 172.519531 L 83.078125 167.027344 C 83.078125 165.515625 81.847656 164.28125 80.332031 164.28125 L 74.839844 164.28125 L 74.839844 158.785156 L 99.5625 158.785156 C 102.585938 158.785156 105.054688 156.320312 105.054688 153.292969 L 105.054688 103.847656 C 105.054688 100.824219 102.585938 98.355469 99.5625 98.355469 " fill-opacity="1" fill-rule="nonzero"/></g><g clip-path="url(#524026a814)"><path fill="#daba02" d="M 181.964844 169.773438 C 181.964844 171.285156 180.730469 172.519531 179.21875 172.519531 L 140.761719 172.519531 C 139.25 172.519531 138.015625 171.285156 138.015625 169.773438 L 138.015625 106.597656 C 138.015625 105.082031 139.25 103.847656 140.761719 103.847656 L 179.21875 103.847656 C 180.730469 103.847656 181.964844 105.082031 181.964844 106.597656 Z M 179.21875 98.355469 L 140.761719 98.355469 C 136.214844 98.355469 132.523438 102.046875 132.523438 106.597656 L 132.523438 169.773438 C 132.523438 174.324219 136.214844 178.015625 140.761719 178.015625 L 179.21875 178.015625 C 183.769531 178.015625 187.460938 174.324219 187.460938 169.773438 L 187.460938 106.597656 C 187.460938 102.046875 183.769531 98.355469 179.21875 98.355469 " fill-opacity="1" fill-rule="nonzero"/></g><path fill="#daba02" d="M 159.992188 164.28125 C 158.476562 164.28125 157.246094 165.515625 157.246094 167.027344 C 157.246094 168.539062 158.476562 169.773438 159.992188 169.773438 C 161.503906 169.773438 162.738281 168.539062 162.738281 167.027344 C 162.738281 165.515625 161.503906 164.28125 159.992188 164.28125 " fill-opacity="1" fill-rule="nonzero"/><path fill="#daba02" d="M 173.726562 145.050781 L 173.726562 156.039062 L 146.257812 156.039062 L 146.257812 112.089844 L 173.726562 112.089844 Z M 176.472656 106.597656 L 143.511719 106.597656 C 141.996094 106.597656 140.761719 107.832031 140.761719 109.34375 L 140.761719 158.785156 C 140.761719 160.300781 141.996094 161.53125 143.511719 161.53125 L 176.472656 161.53125 C 177.984375 161.53125 179.21875 160.300781 179.21875 158.785156 L 179.21875 109.34375 C 179.21875 107.832031 177.984375 106.597656 176.472656 106.597656 " fill-opacity="1" fill-rule="nonzero"/><path fill="#daba02" d="M 107.800781 136.8125 L 129.777344 136.8125 L 129.777344 131.316406 L 107.800781 131.316406 L 107.800781 136.8125 " fill-opacity="1" fill-rule="nonzero"/><path fill="#daba02" d="M 55.613281 114.835938 L 44.625 114.835938 L 44.625 120.332031 L 55.613281 120.332031 L 55.613281 114.835938 " fill-opacity="1" fill-rule="nonzero"/><path fill="#daba02" d="M 66.597656 114.835938 L 61.105469 114.835938 L 61.105469 120.332031 L 66.597656 120.332031 L 66.597656 114.835938 " fill-opacity="1" fill-rule="nonzero"/><path fill="#daba02" d="M 83.078125 114.835938 L 72.09375 114.835938 L 72.09375 120.332031 L 83.078125 120.332031 L 83.078125 114.835938 " fill-opacity="1" fill-rule="nonzero"/><path fill="#daba02" d="M 50.117188 131.316406 L 55.613281 131.316406 L 55.613281 125.824219 L 50.117188 125.824219 L 50.117188 131.316406 " fill-opacity="1" fill-rule="nonzero"/><path fill="#daba02" d="M 72.09375 125.824219 L 61.105469 125.824219 L 61.105469 131.316406 L 72.09375 131.316406 L 72.09375 125.824219 " fill-opacity="1" fill-rule="nonzero"/><path fill="#daba02" d="M 77.585938 131.316406 L 83.078125 131.316406 L 83.078125 125.824219 L 77.585938 125.824219 L 77.585938 131.316406 " fill-opacity="1" fill-rule="nonzero"/><path fill="#daba02" d="M 154.496094 114.835938 L 149.003906 114.835938 L 149.003906 120.332031 L 154.496094 120.332031 L 154.496094 114.835938 " fill-opacity="1" fill-rule="nonzero"/><path fill="#daba02" d="M 157.246094 120.332031 L 170.980469 120.332031 L 170.980469 114.835938 L 157.246094 114.835938 L 157.246094 120.332031 " fill-opacity="1" fill-rule="nonzero"/><path fill="#daba02" d="M 159.992188 123.078125 L 149.003906 123.078125 L 149.003906 128.570312 L 159.992188 128.570312 L 159.992188 123.078125 " fill-opacity="1" fill-rule="nonzero"/><path fill="#daba02" d="M 149.003906 136.8125 L 162.738281 136.8125 L 162.738281 131.316406 L 149.003906 131.316406 L 149.003906 136.8125 " fill-opacity="1" fill-rule="nonzero"/><path fill="#daba02" d="M 165.484375 136.8125 L 170.980469 136.8125 L 170.980469 131.316406 L 165.484375 131.316406 L 165.484375 136.8125 " fill-opacity="1" fill-rule="nonzero"/><path fill="#daba02" d="M 315.890625 134.722656 L 239.683594 134.722656 C 238.621094 134.722656 237.761719 133.863281 237.761719 132.804688 C 237.761719 131.746094 238.621094 130.886719 239.683594 130.886719 L 315.894531 130.886719 C 316.953125 130.886719 317.8125 131.746094 317.8125 132.804688 C 317.8125 133.867188 316.949219 134.722656 315.890625 134.722656 Z M 315.890625 134.722656 " fill-opacity="1" fill-rule="evenodd"/><path fill="#daba02" d="M 315.890625 155.523438 L 278.074219 155.523438 C 277.011719 155.523438 276.15625 154.664062 276.15625 153.605469 C 276.15625 152.542969 277.011719 151.6875 278.074219 151.6875 L 315.894531 151.6875 C 316.953125 151.6875 317.8125 152.542969 317.8125 153.605469 C 317.8125 154.664062 316.949219 155.527344 315.890625 155.523438 Z M 315.890625 155.523438 " fill-opacity="1" fill-rule="evenodd"/><path fill="#daba02" d="M 315.890625 176.324219 L 278.074219 176.324219 C 277.011719 176.324219 276.15625 175.46875 276.15625 174.40625 C 276.15625 173.347656 277.011719 172.488281 278.074219 172.488281 L 315.894531 172.488281 C 316.953125 172.488281 317.8125 173.347656 317.8125 174.40625 C 317.8125 175.46875 316.949219 176.324219 315.890625 176.324219 Z M 315.890625 176.324219 " fill-opacity="1" fill-rule="evenodd"/><path fill="#daba02" d="M 255.34375 197.125 L 239.679688 197.125 C 238.617188 197.125 237.757812 196.265625 237.757812 195.207031 C 237.757812 194.144531 238.617188 193.289062 239.679688 193.289062 L 255.34375 193.289062 C 256.402344 193.289062 257.261719 194.144531 257.261719 195.207031 C 257.261719 196.265625 256.40625 197.125 255.34375 197.125 Z M 255.34375 197.125 " fill-opacity="1" fill-rule="evenodd"/><path fill="#daba02" d="M 315.890625 238.726562 L 278.53125 238.726562 C 277.46875 238.726562 276.609375 237.867188 276.609375 236.808594 C 276.609375 235.75 277.46875 234.890625 278.53125 234.890625 L 315.890625 234.890625 C 316.949219 234.890625 317.808594 235.75 317.808594 236.808594 C 317.8125 237.867188 316.949219 238.726562 315.890625 238.726562 Z M 315.890625 238.726562 " fill-opacity="1" fill-rule="evenodd"/><path fill="#daba02" d="M 289.546875 197.125 L 274.164062 197.125 C 273.101562 197.125 272.246094 196.265625 272.246094 195.207031 C 272.246094 194.144531 273.101562 193.289062 274.164062 193.289062 L 289.546875 193.289062 C 290.609375 193.289062 291.464844 194.144531 291.464844 195.207031 C 291.46875 196.265625 290.609375 197.125 289.546875 197.125 Z M 289.546875 197.125 " fill-opacity="1" fill-rule="evenodd"/><path fill="#daba02" d="M 277.789062 217.925781 L 239.679688 217.925781 C 238.617188 217.925781 237.761719 217.066406 237.761719 216.003906 C 237.761719 214.945312 238.617188 214.085938 239.679688 214.085938 L 277.785156 214.085938 C 278.84375 214.085938 279.703125 214.945312 279.703125 216.003906 C 279.707031 217.066406 278.84375 217.925781 277.789062 217.925781 Z M 277.789062 217.925781 " fill-opacity="1" fill-rule="evenodd"/><g clip-path="url(#4a24cd9bc9)"><path fill="#daba02" d="M 333.441406 188.78125 C 332.382812 188.78125 331.523438 187.921875 331.523438 186.863281 L 331.523438 120.515625 C 331.523438 114.929688 326.972656 110.375 321.382812 110.375 L 234.1875 110.375 C 228.59375 110.375 224.046875 114.925781 224.046875 120.515625 L 224.046875 144.105469 C 224.046875 145.164062 223.1875 146.023438 222.128906 146.023438 C 221.066406 146.023438 220.210938 145.164062 220.210938 144.105469 L 220.210938 120.515625 C 220.210938 112.808594 226.480469 106.539062 234.1875 106.539062 L 321.386719 106.539062 C 329.089844 106.539062 335.363281 112.808594 335.363281 120.515625 L 335.363281 186.863281 C 335.363281 187.921875 334.5 188.78125 333.441406 188.78125 Z M 222.128906 232.359375 C 221.066406 232.359375 220.210938 231.5 220.210938 230.441406 L 220.210938 180.199219 C 220.210938 179.136719 221.066406 178.277344 222.128906 178.277344 C 223.1875 178.277344 224.046875 179.136719 224.046875 180.199219 L 224.046875 230.441406 C 224.050781 231.5 223.1875 232.359375 222.128906 232.359375 Z M 321.386719 263.074219 L 278.53125 263.074219 C 277.46875 263.074219 276.609375 262.214844 276.609375 261.15625 C 276.609375 260.097656 277.46875 259.238281 278.53125 259.238281 L 321.386719 259.238281 C 326.976562 259.238281 331.523438 254.6875 331.523438 249.097656 L 331.523438 222.953125 C 331.523438 221.894531 332.382812 221.035156 333.441406 221.035156 C 334.5 221.035156 335.359375 221.894531 335.359375 222.953125 L 335.359375 249.097656 C 335.363281 256.800781 329.089844 263.074219 321.386719 263.074219 Z M 321.386719 263.074219 " fill-opacity="1" fill-rule="evenodd"/></g><path fill="#daba02" d="M 329.683594 216.046875 C 325.496094 216.046875 322.085938 213.21875 322.085938 209.742188 C 322.085938 208.683594 322.941406 207.824219 324.003906 207.824219 C 325.066406 207.824219 325.921875 208.683594 325.921875 209.742188 C 325.921875 211.058594 327.679688 212.210938 329.683594 212.210938 C 331.691406 212.210938 333.445312 211.058594 333.445312 209.742188 C 333.445312 208.410156 331.75 207.675781 328.949219 206.625 C 325.890625 205.472656 322.085938 204.035156 322.085938 200.0625 C 322.085938 196.585938 325.496094 193.757812 329.683594 193.757812 C 333.875 193.757812 337.28125 196.585938 337.28125 200.0625 C 337.28125 201.121094 336.425781 201.980469 335.363281 201.980469 C 334.304688 201.980469 333.445312 201.121094 333.445312 200.0625 C 333.445312 198.75 331.691406 197.597656 329.683594 197.597656 C 327.679688 197.597656 325.921875 198.75 325.921875 200.0625 C 325.921875 201.289062 327.660156 202.035156 330.300781 203.035156 C 333.414062 204.203125 337.28125 205.664062 337.28125 209.746094 C 337.285156 213.21875 333.875 216.046875 329.683594 216.046875 Z M 329.683594 216.046875 " fill-opacity="1" fill-rule="evenodd"/><path fill="#daba02" d="M 310.421875 216.046875 C 304.039062 216.046875 298.847656 211.046875 298.847656 204.902344 C 298.847656 198.753906 304.035156 193.757812 310.421875 193.757812 C 312.910156 193.757812 315.378906 194.550781 317.367188 195.984375 C 318.226562 196.605469 318.421875 197.804688 317.800781 198.664062 C 317.183594 199.523438 315.980469 199.714844 315.125 199.097656 C 313.78125 198.128906 312.109375 197.597656 310.421875 197.597656 C 306.160156 197.597656 302.6875 200.875 302.6875 204.902344 C 302.6875 208.929688 306.160156 212.207031 310.421875 212.207031 C 312.113281 212.207031 313.78125 211.675781 315.125 210.707031 C 315.980469 210.089844 317.183594 210.28125 317.800781 211.140625 C 318.421875 212 318.226562 213.199219 317.367188 213.820312 C 315.378906 215.257812 312.910156 216.046875 310.421875 216.046875 Z M 310.421875 216.046875 " fill-opacity="1" fill-rule="evenodd"/><path fill="#daba02" d="M 348.808594 216.046875 C 344.621094 216.046875 341.203125 213.21875 341.203125 209.742188 C 341.203125 208.683594 342.0625 207.824219 343.121094 207.824219 C 344.183594 207.824219 345.042969 208.683594 345.042969 209.742188 C 345.042969 211.058594 346.800781 212.210938 348.804688 212.210938 C 350.808594 212.210938 352.566406 211.058594 352.566406 209.742188 C 352.566406 208.410156 350.871094 207.675781 348.070312 206.625 C 345.011719 205.472656 341.203125 204.035156 341.203125 200.0625 C 341.203125 196.585938 344.617188 193.757812 348.804688 193.757812 C 352.992188 193.757812 356.402344 196.585938 356.402344 200.0625 C 356.402344 201.121094 355.542969 201.980469 354.484375 201.980469 C 353.421875 201.980469 352.566406 201.121094 352.566406 200.0625 C 352.566406 198.75 350.808594 197.597656 348.804688 197.597656 C 346.800781 197.597656 345.042969 198.75 345.042969 200.0625 C 345.042969 201.289062 346.777344 202.035156 349.421875 203.035156 C 352.535156 204.203125 356.402344 205.664062 356.402344 209.746094 C 356.410156 213.21875 352.996094 216.046875 348.808594 216.046875 Z M 348.808594 216.046875 " fill-opacity="1" fill-rule="evenodd"/><path fill="#daba02" d="M 209.773438 171.453125 C 208.710938 171.453125 207.851562 170.59375 207.851562 169.53125 L 207.851562 154.777344 C 207.851562 153.71875 208.710938 152.859375 209.773438 152.859375 C 210.832031 152.859375 211.691406 153.71875 211.691406 154.777344 L 211.691406 169.53125 C 211.691406 170.59375 210.832031 171.453125 209.773438 171.453125 Z M 209.773438 171.453125 " fill-opacity="1" fill-rule="evenodd"/><path fill="#daba02" d="M 218.914062 171.453125 C 217.855469 171.453125 216.996094 170.59375 216.996094 169.53125 L 216.996094 154.777344 C 216.996094 153.71875 217.855469 152.859375 218.914062 152.859375 C 219.972656 152.859375 220.832031 153.71875 220.832031 154.777344 L 220.832031 169.53125 C 220.832031 170.59375 219.972656 171.453125 218.914062 171.453125 Z M 218.914062 171.453125 " fill-opacity="1" fill-rule="evenodd"/><path fill="#daba02" d="M 218.914062 164.0625 L 209.773438 164.0625 C 208.710938 164.0625 207.851562 163.203125 207.851562 162.140625 C 207.851562 161.082031 208.710938 160.222656 209.773438 160.222656 L 218.914062 160.222656 C 219.972656 160.222656 220.832031 161.082031 220.832031 162.140625 C 220.832031 163.203125 219.972656 164.0625 218.914062 164.0625 Z M 218.914062 164.0625 " fill-opacity="1" fill-rule="evenodd"/><path fill="#daba02" d="M 254.632812 171.453125 C 253.574219 171.453125 252.714844 170.59375 252.714844 169.53125 L 252.714844 164.296875 L 250.203125 170.277344 C 249.902344 170.992188 249.207031 171.453125 248.433594 171.453125 C 247.660156 171.453125 246.960938 170.988281 246.664062 170.277344 L 244.152344 164.296875 L 244.152344 169.53125 C 244.152344 170.59375 243.292969 171.453125 242.230469 171.453125 C 241.171875 171.453125 240.3125 170.59375 240.3125 169.53125 L 240.3125 154.773438 C 240.3125 153.859375 240.957031 153.074219 241.851562 152.894531 C 242.75 152.710938 243.648438 153.191406 244.003906 154.035156 L 248.4375 164.582031 L 252.867188 154.035156 C 253.222656 153.191406 254.121094 152.714844 255.015625 152.894531 C 255.910156 153.078125 256.558594 153.863281 256.558594 154.773438 L 256.558594 169.53125 C 256.554688 170.59375 255.695312 171.453125 254.632812 171.453125 Z M 254.632812 171.453125 " fill-opacity="1" fill-rule="evenodd"/><path fill="#daba02" d="M 270.21875 171.453125 L 260.089844 171.453125 C 259.03125 171.453125 258.171875 170.59375 258.171875 169.53125 L 258.171875 154.777344 C 258.171875 153.71875 259.03125 152.859375 260.089844 152.859375 C 261.148438 152.859375 262.007812 153.71875 262.007812 154.777344 L 262.007812 167.613281 L 270.21875 167.613281 C 271.28125 167.613281 272.136719 168.472656 272.136719 169.53125 C 272.136719 170.59375 271.28125 171.453125 270.21875 171.453125 Z M 270.21875 171.453125 " fill-opacity="1" fill-rule="evenodd"/><path fill="#daba02" d="M 236.777344 156.691406 L 224.371094 156.691406 C 223.308594 156.691406 222.449219 155.835938 222.449219 154.773438 C 222.449219 153.714844 223.308594 152.855469 224.371094 152.855469 L 236.777344 152.855469 C 237.835938 152.855469 238.695312 153.714844 238.695312 154.773438 C 238.695312 155.835938 237.835938 156.691406 236.777344 156.691406 Z M 236.777344 156.691406 " fill-opacity="1" fill-rule="evenodd"/><path fill="#daba02" d="M 230.574219 171.453125 C 229.515625 171.453125 228.65625 170.59375 228.65625 169.53125 L 228.65625 154.777344 C 228.65625 153.71875 229.515625 152.859375 230.574219 152.859375 C 231.632812 152.859375 232.492188 153.71875 232.492188 154.777344 L 232.492188 169.53125 C 232.492188 170.59375 231.632812 171.453125 230.574219 171.453125 Z M 230.574219 171.453125 " fill-opacity="1" fill-rule="evenodd"/><path fill="#daba02" d="M 229.667969 260.46875 C 225.082031 260.46875 221.351562 256.808594 221.351562 252.3125 C 221.351562 251.253906 222.207031 250.394531 223.269531 250.394531 C 224.332031 250.394531 225.191406 251.253906 225.191406 252.3125 C 225.191406 254.691406 227.195312 256.628906 229.664062 256.628906 C 232.136719 256.628906 234.144531 254.695312 234.144531 252.3125 L 234.144531 238.429688 C 234.144531 237.371094 235.003906 236.511719 236.0625 236.511719 C 237.125 236.511719 237.984375 237.371094 237.984375 238.429688 L 237.984375 252.3125 C 237.984375 256.808594 234.253906 260.46875 229.667969 260.46875 Z M 229.667969 260.46875 " fill-opacity="1" fill-rule="evenodd"/><path fill="#daba02" d="M 251.441406 260.46875 C 246.96875 260.46875 243.328125 257.460938 243.328125 253.769531 C 243.328125 252.707031 244.1875 251.851562 245.25 251.851562 C 246.308594 251.851562 247.167969 252.707031 247.167969 253.769531 C 247.167969 255.320312 249.125 256.625 251.4375 256.625 C 253.757812 256.625 255.710938 255.316406 255.710938 253.769531 C 255.710938 252.207031 253.816406 251.378906 250.699219 250.207031 C 247.414062 248.96875 243.328125 247.429688 243.328125 243.21875 C 243.328125 239.519531 246.964844 236.519531 251.4375 236.519531 C 255.910156 236.519531 259.550781 239.519531 259.550781 243.21875 C 259.550781 244.277344 258.691406 245.136719 257.632812 245.136719 C 256.570312 245.136719 255.714844 244.277344 255.714844 243.21875 C 255.714844 241.667969 253.757812 240.359375 251.441406 240.359375 C 249.128906 240.359375 247.171875 241.671875 247.171875 243.21875 C 247.171875 244.667969 249.019531 245.472656 252.058594 246.613281 C 255.402344 247.871094 259.554688 249.441406 259.554688 253.773438 C 259.554688 257.460938 255.914062 260.46875 251.441406 260.46875 Z M 251.441406 260.46875 " fill-opacity="1" fill-rule="evenodd"/><path fill="#daba02" d="M 203.835938 178.277344 L 276.15625 178.277344 L 276.15625 146.023438 L 203.835938 146.023438 Z M 278.074219 182.117188 L 201.917969 182.117188 C 200.859375 182.117188 200 181.257812 200 180.199219 L 200 144.101562 C 200 143.042969 200.859375 142.183594 201.917969 142.183594 L 278.074219 142.183594 C 279.132812 142.183594 279.992188 143.042969 279.992188 144.101562 L 279.992188 180.199219 C 279.992188 181.257812 279.132812 182.117188 278.074219 182.117188 Z M 278.074219 182.117188 " fill-opacity="1" fill-rule="evenodd"/><path fill="#daba02" d="M 291.46875 221.035156 L 363.785156 221.035156 L 363.785156 188.78125 L 291.46875 188.78125 Z M 365.703125 224.875 L 289.546875 224.875 C 288.488281 224.875 287.628906 224.015625 287.628906 222.953125 L 287.628906 186.859375 C 287.628906 185.800781 288.488281 184.941406 289.546875 184.941406 L 365.703125 184.941406 C 366.761719 184.941406 367.621094 185.800781 367.621094 186.859375 L 367.621094 222.953125 C 367.621094 224.015625 366.765625 224.878906 365.703125 224.875 Z M 365.703125 224.875 " fill-opacity="1" fill-rule="evenodd"/><g clip-path="url(#a6346ad4ea)"><path fill="#daba02" d="M 204.292969 264.617188 L 276.609375 264.617188 L 276.609375 232.359375 L 204.292969 232.359375 C 204.292969 232.359375 204.292969 264.617188 204.292969 264.617188 Z M 278.53125 268.453125 L 202.375 268.453125 C 201.3125 268.453125 200.457031 267.597656 200.457031 266.535156 L 200.457031 230.441406 C 200.457031 229.378906 201.3125 228.523438 202.375 228.523438 L 278.53125 228.523438 C 279.59375 228.523438 280.449219 229.378906 280.449219 230.441406 L 280.449219 266.535156 C 280.449219 267.597656 279.59375 268.453125 278.53125 268.453125 Z M 278.53125 268.453125 " fill-opacity="1" fill-rule="evenodd"/></g><path fill="#daba02" d="M 42.851562 317.953125 L 42.832031 317.941406 C 41.617188 317.246094 40.070312 317.675781 39.375 318.894531 C 38.675781 320.113281 39.109375 321.667969 40.328125 322.367188 C 40.726562 322.59375 41.160156 322.699219 41.585938 322.699219 C 42.46875 322.699219 43.328125 322.242188 43.796875 321.421875 C 44.492188 320.203125 44.070312 318.648438 42.851562 317.953125 Z M 42.851562 317.953125 " fill-opacity="1" fill-rule="nonzero"/><path fill="#daba02" d="M 41.570312 296.691406 C 42.976562 296.691406 44.113281 295.554688 44.113281 294.148438 C 44.113281 292.746094 42.976562 291.609375 41.570312 291.609375 L 41.554688 291.609375 C 40.148438 291.609375 39.019531 292.746094 39.019531 294.148438 C 39.019531 295.554688 40.167969 296.691406 41.570312 296.691406 Z M 41.570312 296.691406 " fill-opacity="1" fill-rule="nonzero"/><path fill="#daba02" d="M 42.726562 266.464844 L 42.707031 266.457031 C 41.457031 265.832031 39.9375 266.339844 39.308594 267.597656 C 38.679688 268.851562 39.195312 270.382812 40.453125 271.011719 C 40.816406 271.195312 41.207031 271.28125 41.585938 271.28125 C 42.519531 271.28125 43.417969 270.765625 43.863281 269.875 C 44.492188 268.617188 43.980469 267.09375 42.726562 266.464844 Z M 42.726562 266.464844 " fill-opacity="1" fill-rule="nonzero"/><g clip-path="url(#6d1eab52fc)"><path fill="#daba02" d="M 140.199219 268.324219 L 181.039062 268.324219 C 184.679688 268.324219 187.640625 265.363281 187.640625 261.726562 L 187.640625 215.445312 C 187.640625 211.808594 184.679688 208.847656 181.039062 208.847656 L 140.199219 208.847656 C 136.558594 208.847656 133.601562 211.808594 133.601562 215.445312 L 133.601562 235.476562 L 127.5625 235.476562 C 122.085938 235.476562 116.171875 239.976562 116.171875 247.25 L 116.171875 284.933594 L 99.597656 284.933594 L 99.597656 249.695312 C 99.597656 240.941406 82.03125 236.363281 64.679688 236.363281 C 47.328125 236.363281 29.757812 240.941406 29.757812 249.695312 L 29.757812 325.253906 C 29.757812 334.011719 47.328125 338.589844 64.679688 338.589844 C 82.03125 338.589844 99.597656 334.011719 99.597656 325.253906 L 99.597656 290.019531 L 116.171875 290.019531 L 116.171875 327.46875 C 116.171875 334.742188 122.085938 339.242188 127.5625 339.242188 L 133.574219 339.242188 L 133.574219 359.84375 C 133.574219 363.484375 136.535156 366.445312 140.171875 366.445312 L 181.011719 366.445312 C 184.652344 366.445312 187.613281 363.484375 187.613281 359.84375 L 187.613281 313.566406 C 187.613281 309.925781 184.652344 306.96875 181.011719 306.96875 L 140.171875 306.96875 C 136.535156 306.96875 133.574219 309.925781 133.574219 313.566406 L 133.574219 334.160156 L 127.5625 334.160156 C 124.527344 334.160156 121.253906 331.601562 121.253906 327.46875 L 121.253906 247.25 C 121.253906 243.117188 124.527344 240.558594 127.5625 240.558594 L 133.601562 240.558594 L 133.601562 261.726562 C 133.601562 265.363281 136.558594 268.324219 140.199219 268.324219 Z M 94.515625 274.882812 C 94.515625 277.683594 83.984375 283.132812 64.679688 283.132812 C 45.375 283.132812 34.84375 277.683594 34.84375 274.882812 L 34.84375 256.949219 C 41.304688 260.957031 53.027344 263.03125 64.679688 263.03125 C 76.332031 263.03125 88.054688 260.957031 94.515625 256.949219 Z M 34.84375 282.136719 C 41.304688 286.144531 53.027344 288.21875 64.679688 288.21875 C 76.332031 288.21875 88.054688 286.144531 94.515625 282.136719 L 94.515625 300.070312 C 94.515625 302.871094 83.984375 308.320312 64.679688 308.320312 C 45.375 308.320312 34.84375 302.871094 34.84375 300.070312 Z M 64.679688 241.445312 C 83.984375 241.445312 94.515625 246.894531 94.515625 249.695312 C 94.515625 252.496094 83.984375 257.949219 64.679688 257.949219 C 45.375 257.949219 34.84375 252.496094 34.84375 249.695312 C 34.84375 246.894531 45.375 241.445312 64.679688 241.445312 Z M 64.679688 333.507812 C 45.375 333.507812 34.84375 328.054688 34.84375 325.253906 L 34.84375 307.320312 C 41.304688 311.328125 53.027344 313.402344 64.679688 313.402344 C 76.332031 313.402344 88.054688 311.328125 94.515625 307.320312 L 94.515625 325.253906 C 94.515625 328.054688 83.984375 333.507812 64.679688 333.507812 Z M 138.65625 313.566406 C 138.65625 312.746094 139.351562 312.050781 140.171875 312.050781 L 181.011719 312.050781 C 181.835938 312.050781 182.527344 312.746094 182.527344 313.566406 L 182.527344 359.84375 C 182.527344 360.664062 181.835938 361.359375 181.011719 361.359375 L 140.171875 361.359375 C 139.351562 361.359375 138.65625 360.667969 138.65625 359.84375 Z M 138.683594 215.445312 C 138.683594 214.625 139.378906 213.929688 140.199219 213.929688 L 181.039062 213.929688 C 181.863281 213.929688 182.554688 214.625 182.554688 215.445312 L 182.554688 261.726562 C 182.554688 262.546875 181.863281 263.242188 181.039062 263.242188 L 140.199219 263.242188 C 139.378906 263.242188 138.683594 262.546875 138.683594 261.726562 Z M 138.683594 215.445312 " fill-opacity="1" fill-rule="nonzero"/></g><path fill="#daba02" d="M 148.757812 240.386719 C 149.253906 240.882812 149.902344 241.132812 150.554688 241.132812 C 151.203125 241.132812 151.855469 240.882812 152.351562 240.386719 C 153.34375 239.394531 153.34375 237.785156 152.351562 236.792969 L 148.792969 233.234375 L 152.621094 229.617188 C 153.640625 228.65625 153.6875 227.046875 152.722656 226.027344 C 151.761719 225.003906 150.152344 224.960938 149.128906 225.921875 L 143.398438 231.332031 C 142.898438 231.800781 142.613281 232.457031 142.601562 233.144531 C 142.589844 233.832031 142.859375 234.492188 143.347656 234.976562 Z M 148.757812 240.386719 " fill-opacity="1" fill-rule="nonzero"/><path fill="#daba02" d="M 157.597656 246.726562 C 157.78125 246.765625 157.960938 246.785156 158.140625 246.785156 C 159.3125 246.785156 160.363281 245.972656 160.621094 244.785156 L 165.261719 223.46875 C 165.5625 222.09375 164.691406 220.738281 163.320312 220.441406 C 161.945312 220.144531 160.59375 221.015625 160.296875 222.386719 L 155.65625 243.703125 C 155.355469 245.074219 156.226562 246.429688 157.597656 246.726562 Z M 157.597656 246.726562 " fill-opacity="1" fill-rule="nonzero"/><path fill="#daba02" d="M 172.457031 233.234375 L 168.890625 236.792969 C 167.898438 237.785156 167.898438 239.394531 168.890625 240.386719 C 169.386719 240.882812 170.035156 241.132812 170.6875 241.132812 C 171.335938 241.132812 171.988281 240.882812 172.484375 240.390625 L 177.902344 234.980469 C 178.386719 234.492188 178.65625 233.832031 178.648438 233.144531 C 178.636719 232.457031 178.351562 231.800781 177.847656 231.328125 L 172.105469 225.921875 C 171.085938 224.960938 169.476562 225.003906 168.511719 226.027344 C 167.550781 227.050781 167.597656 228.660156 168.621094 229.621094 Z M 172.457031 233.234375 " fill-opacity="1" fill-rule="nonzero"/><path fill="#daba02" d="M 162.339844 251.941406 L 162.320312 251.933594 C 161.050781 251.339844 159.546875 251.894531 158.953125 253.167969 C 158.359375 254.4375 158.917969 255.957031 160.191406 256.550781 C 160.539062 256.710938 160.90625 256.789062 161.265625 256.789062 C 162.222656 256.789062 163.136719 256.246094 163.570312 255.320312 C 164.164062 254.050781 163.613281 252.535156 162.339844 251.941406 Z M 162.339844 251.941406 " fill-opacity="1" fill-rule="nonzero"/><path fill="#daba02" d="M 153.132812 251.964844 C 151.882812 251.339844 150.359375 251.851562 149.730469 253.105469 C 149.101562 254.359375 149.621094 255.890625 150.875 256.519531 C 151.242188 256.703125 151.628906 256.789062 152.011719 256.789062 C 152.945312 256.789062 153.839844 256.273438 154.285156 255.382812 C 154.914062 254.128906 154.40625 252.601562 153.148438 251.972656 Z M 153.132812 251.964844 " fill-opacity="1" fill-rule="nonzero"/><path fill="#daba02" d="M 171.59375 251.941406 L 171.574219 251.933594 C 170.300781 251.339844 168.796875 251.894531 168.203125 253.167969 C 167.609375 254.4375 168.171875 255.957031 169.441406 256.550781 C 169.789062 256.710938 170.15625 256.789062 170.515625 256.789062 C 171.472656 256.789062 172.390625 256.246094 172.820312 255.320312 C 173.414062 254.050781 172.863281 252.535156 171.59375 251.941406 Z M 171.59375 251.941406 " fill-opacity="1" fill-rule="nonzero"/><path fill="#daba02" d="M 148.730469 338.507812 C 149.226562 339.003906 149.875 339.253906 150.527344 339.253906 C 151.175781 339.253906 151.828125 339.003906 152.324219 338.507812 C 153.316406 337.515625 153.316406 335.90625 152.320312 334.914062 L 148.757812 331.351562 L 152.589844 327.738281 C 153.613281 326.777344 153.660156 325.167969 152.699219 324.148438 C 151.734375 323.125 150.125 323.074219 149.105469 324.042969 L 143.363281 329.449219 C 142.863281 329.921875 142.574219 330.574219 142.566406 331.261719 C 142.554688 331.949219 142.824219 332.613281 143.3125 333.097656 Z M 148.730469 338.507812 " fill-opacity="1" fill-rule="nonzero"/><path fill="#daba02" d="M 157.574219 344.847656 C 157.753906 344.886719 157.9375 344.902344 158.117188 344.902344 C 159.285156 344.902344 160.339844 344.089844 160.597656 342.902344 L 165.234375 321.585938 C 165.535156 320.214844 164.664062 318.859375 163.292969 318.5625 C 161.929688 318.261719 160.566406 319.132812 160.269531 320.503906 L 155.628906 341.820312 C 155.332031 343.191406 156.199219 344.546875 157.574219 344.847656 Z M 157.574219 344.847656 " fill-opacity="1" fill-rule="nonzero"/><path fill="#daba02" d="M 172.421875 331.351562 L 168.863281 334.914062 C 167.871094 335.90625 167.871094 337.515625 168.863281 338.507812 C 169.359375 339.003906 170.007812 339.253906 170.660156 339.253906 C 171.308594 339.253906 171.960938 339.003906 172.457031 338.507812 L 177.867188 333.097656 C 178.351562 332.609375 178.621094 331.949219 178.613281 331.261719 C 178.601562 330.574219 178.3125 329.921875 177.816406 329.449219 L 172.082031 324.042969 C 171.0625 323.082031 169.453125 323.125 168.488281 324.144531 C 167.527344 325.167969 167.574219 326.777344 168.59375 327.742188 Z M 172.421875 331.351562 " fill-opacity="1" fill-rule="nonzero"/><path fill="#daba02" d="M 163.132812 350.683594 C 162.207031 349.625 160.609375 349.523438 159.550781 350.449219 C 158.496094 351.375 158.390625 352.984375 159.316406 354.039062 C 159.820312 354.617188 160.523438 354.910156 161.230469 354.910156 C 161.824219 354.910156 162.421875 354.703125 162.902344 354.28125 C 163.960938 353.355469 164.066406 351.75 163.140625 350.695312 Z M 163.132812 350.683594 " fill-opacity="1" fill-rule="nonzero"/><path fill="#daba02" d="M 153.164062 350.113281 C 151.925781 349.457031 150.398438 349.925781 149.734375 351.167969 C 149.074219 352.40625 149.550781 353.949219 150.789062 354.613281 C 151.171875 354.8125 151.582031 354.910156 151.984375 354.910156 C 152.890625 354.910156 153.769531 354.421875 154.230469 353.5625 C 154.890625 352.324219 154.421875 350.785156 153.183594 350.125 Z M 153.164062 350.113281 " fill-opacity="1" fill-rule="nonzero"/><path fill="#daba02" d="M 172.386719 350.683594 C 171.460938 349.625 169.859375 349.523438 168.804688 350.449219 C 167.746094 351.375 167.644531 352.984375 168.570312 354.039062 C 169.070312 354.617188 169.773438 354.910156 170.480469 354.910156 C 171.074219 354.910156 171.671875 354.703125 172.15625 354.28125 C 173.210938 353.355469 173.316406 351.75 172.394531 350.695312 Z M 172.386719 350.683594 " fill-opacity="1" fill-rule="nonzero"/></svg>