<svg xmlns="http://www.w3.org/2000/svg" xmlns:xlink="http://www.w3.org/1999/xlink" width="500" zoomAndPan="magnify" viewBox="0 0 375 374.999991" height="500" preserveAspectRatio="xMidYMid meet" version="1.0"><defs><g/><clipPath id="b1944b36e6"><path d="M 16.855469 27.359375 L 358.144531 27.359375 L 358.144531 368.652344 L 16.855469 368.652344 Z M 16.855469 27.359375 " clip-rule="nonzero"/></clipPath><clipPath id="93b1c50f5a"><path d="M 187.5 27.359375 C 93.253906 27.359375 16.855469 103.761719 16.855469 198.007812 C 16.855469 292.253906 93.253906 368.652344 187.5 368.652344 C 281.746094 368.652344 358.144531 292.253906 358.144531 198.007812 C 358.144531 103.761719 281.746094 27.359375 187.5 27.359375 Z M 187.5 27.359375 " clip-rule="nonzero"/></clipPath><clipPath id="f7f4d8de93"><path d="M 13.71875 24.226562 L 360.96875 24.226562 L 360.96875 371.476562 L 13.71875 371.476562 Z M 13.71875 24.226562 " clip-rule="nonzero"/></clipPath></defs><g clip-path="url(#b1944b36e6)"><g clip-path="url(#93b1c50f5a)"><path fill="#cdb797" d="M 16.855469 27.359375 L 358.144531 27.359375 L 358.144531 368.652344 L 16.855469 368.652344 Z M 16.855469 27.359375 " fill-opacity="1" fill-rule="nonzero"/></g></g><g clip-path="url(#f7f4d8de93)"><path fill="#7c0d13" d="M 187.496094 371.78125 C 91.492188 371.78125 13.71875 293.476562 13.71875 198.003906 C 13.71875 102.535156 91.492188 24.226562 187.496094 24.226562 C 283.503906 24.226562 361.273438 102 361.273438 198.003906 C 361.273438 294.011719 282.96875 371.78125 187.496094 371.78125 Z M 187.496094 34.953125 C 97.390625 34.953125 24.445312 107.898438 24.445312 198.003906 C 24.445312 288.113281 97.390625 361.054688 187.496094 361.054688 C 277.605469 361.054688 350.546875 288.113281 350.546875 198.003906 C 350.546875 107.898438 277.066406 34.953125 187.496094 34.953125 Z M 187.496094 34.953125 " fill-opacity="1" fill-rule="nonzero"/></g><g fill="#7c0d13" fill-opacity="1"><g transform="translate(82.499999, 269.257356)"><g><path d="M 15 -166.75 L 90 -166.75 L 90 -10 L 15 34.75 Z M 15 -166.75 "/></g></g></g><g fill="#7c0d13" fill-opacity="1"><g transform="translate(187.498779, 269.257356)"><g><path d="M 15 -166.75 L 90 -166.75 L 90 -10 L 15 34.75 Z M 15 -166.75 "/></g></g></g></svg>