<svg xmlns="http://www.w3.org/2000/svg" xmlns:xlink="http://www.w3.org/1999/xlink" width="500" zoomAndPan="magnify" viewBox="0 0 375 374.999991" height="500" preserveAspectRatio="xMidYMid meet" version="1.0"><defs><clipPath id="c4a5176877"><path d="M 19.269531 19.269531 L 356 19.269531 L 356 356.019531 L 19.269531 356.019531 Z M 19.269531 19.269531 " clip-rule="nonzero"/></clipPath></defs><g clip-path="url(#c4a5176877)"><path  d="M 327.886719 19.269531 L 47.570312 19.269531 C 32.074219 19.269531 19.609375 31.90625 19.609375 47.234375 L 19.609375 328.054688 C 19.609375 343.554688 32.242188 356.019531 47.570312 356.019531 L 327.71875 356.019531 C 343.21875 356.019531 355.683594 343.386719 355.683594 328.054688 L 355.683594 47.234375 C 355.851562 31.90625 343.386719 19.269531 327.886719 19.269531 Z M 119.167969 297.058594 L 69.472656 297.058594 L 69.472656 147.804688 L 119.167969 147.804688 Z M 94.234375 129.78125 C 78.570312 129.78125 65.933594 117.144531 65.933594 101.480469 C 65.933594 85.8125 78.570312 73.179688 94.234375 73.179688 C 109.902344 73.179688 122.535156 85.8125 122.535156 101.480469 C 122.535156 117.144531 109.902344 129.78125 94.234375 129.78125 Z M 306.15625 297.058594 L 256.292969 297.058594 L 255.113281 208.449219 C 255.113281 208.449219 256.292969 184.867188 230.519531 185.035156 C 204.746094 185.203125 201.207031 208.449219 201.207031 208.449219 L 201.207031 297.058594 L 151.007812 297.058594 L 151.007812 147.804688 L 199.183594 147.804688 L 199.183594 168.355469 C 199.183594 168.355469 201.207031 161.617188 212.324219 153.703125 C 223.445312 145.785156 241.804688 144.097656 249.722656 144.4375 C 257.640625 144.773438 268.421875 143.425781 286.445312 155.890625 C 305.820312 169.199219 306.324219 204.070312 306.324219 204.070312 Z M 306.15625 297.058594 " fill-opacity="1" fill-rule="nonzero"/></g></svg>