<svg xmlns="http://www.w3.org/2000/svg" xmlns:xlink="http://www.w3.org/1999/xlink" width="400" zoomAndPan="magnify" viewBox="0 0 375 374.999991" height="400" preserveAspectRatio="xMidYMid meet" version="1.0"><defs><clipPath id="681e76bd56"><path d="M 34 18.667969 L 162 18.667969 L 162 83 L 34 83 Z M 34 18.667969 " clip-rule="nonzero"/></clipPath><clipPath id="6059a1fa9d"><path d="M 29.648438 84 L 98 84 L 98 149.917969 L 29.648438 149.917969 Z M 29.648438 84 " clip-rule="nonzero"/></clipPath><clipPath id="0a3ddaedfa"><path d="M 120 84 L 165.398438 84 L 165.398438 149.917969 L 120 149.917969 Z M 120 84 " clip-rule="nonzero"/></clipPath><clipPath id="17750ab82c"><path d="M 230 120.523438 L 327 120.523438 L 327 250 L 230 250 Z M 230 120.523438 " clip-rule="nonzero"/></clipPath><clipPath id="b4b51b5c0d"><path d="M 214.246094 150 L 281 150 L 281 184 L 214.246094 184 Z M 214.246094 150 " clip-rule="nonzero"/></clipPath><clipPath id="1fa79e2d5d"><path d="M 286 185 L 352.996094 185 L 352.996094 219 L 286 219 Z M 286 185 " clip-rule="nonzero"/></clipPath><clipPath id="fe017c30dd"><path d="M 214.246094 221 L 281 221 L 281 254.773438 L 214.246094 254.773438 Z M 214.246094 221 " clip-rule="nonzero"/></clipPath><clipPath id="d911436f55"><path d="M 30.855469 225.574219 L 164.355469 225.574219 L 164.355469 359.074219 L 30.855469 359.074219 Z M 30.855469 225.574219 " clip-rule="nonzero"/></clipPath></defs><g clip-path="url(#681e76bd56)"><path fill="#daba02" d="M 38.742188 23.203125 L 156.582031 23.203125 L 156.582031 36.800781 L 38.742188 36.800781 Z M 38.742188 41.332031 L 156.582031 41.332031 L 156.582031 82.121094 L 161.117188 82.121094 L 161.117188 20.9375 C 161.117188 19.6875 160.097656 18.667969 158.847656 18.667969 L 36.476562 18.667969 C 35.226562 18.667969 34.210938 19.6875 34.210938 20.9375 L 34.210938 82.121094 L 38.742188 82.121094 L 38.742188 41.332031 " fill-opacity="1" fill-rule="nonzero"/></g><path fill="#daba02" d="M 43.273438 32.265625 L 47.808594 32.265625 L 47.808594 27.734375 L 43.273438 27.734375 L 43.273438 32.265625 " fill-opacity="1" fill-rule="nonzero"/><path fill="#daba02" d="M 52.339844 32.265625 L 56.871094 32.265625 L 56.871094 27.734375 L 52.339844 27.734375 L 52.339844 32.265625 " fill-opacity="1" fill-rule="nonzero"/><path fill="#daba02" d="M 61.402344 32.265625 L 65.9375 32.265625 L 65.9375 27.734375 L 61.402344 27.734375 L 61.402344 32.265625 " fill-opacity="1" fill-rule="nonzero"/><path fill="#daba02" d="M 77.929688 46.527344 L 73.398438 51.058594 C 72.511719 51.945312 72.511719 53.378906 73.398438 54.265625 L 77.929688 58.796875 L 81.136719 55.59375 L 78.207031 52.664062 L 81.136719 49.730469 L 77.929688 46.527344 " fill-opacity="1" fill-rule="nonzero"/><path fill="#daba02" d="M 91.316406 46.777344 L 84.515625 55.839844 L 88.148438 58.550781 L 94.945312 49.484375 L 91.316406 46.777344 " fill-opacity="1" fill-rule="nonzero"/><path fill="#daba02" d="M 101.53125 58.796875 L 106.0625 54.265625 C 106.949219 53.378906 106.949219 51.945312 106.0625 51.058594 L 101.53125 46.527344 L 98.328125 49.730469 L 101.257812 52.664062 L 98.328125 55.59375 L 101.53125 58.796875 " fill-opacity="1" fill-rule="nonzero"/><path fill="#daba02" d="M 81.800781 63.992188 L 72.734375 63.992188 L 72.734375 68.527344 L 81.800781 68.527344 L 81.800781 63.992188 " fill-opacity="1" fill-rule="nonzero"/><path fill="#daba02" d="M 86.332031 68.527344 L 90.863281 68.527344 L 90.863281 63.992188 L 86.332031 63.992188 L 86.332031 68.527344 " fill-opacity="1" fill-rule="nonzero"/><path fill="#daba02" d="M 108.992188 63.992188 L 95.398438 63.992188 L 95.398438 68.527344 L 108.992188 68.527344 L 108.992188 63.992188 " fill-opacity="1" fill-rule="nonzero"/><path fill="#daba02" d="M 122.589844 63.992188 L 113.527344 63.992188 L 113.527344 68.527344 L 122.589844 68.527344 L 122.589844 63.992188 " fill-opacity="1" fill-rule="nonzero"/><path fill="#daba02" d="M 81.800781 77.589844 L 81.800781 73.058594 L 77.265625 73.058594 L 77.265625 77.589844 L 81.800781 77.589844 " fill-opacity="1" fill-rule="nonzero"/><path fill="#daba02" d="M 95.398438 73.058594 L 86.332031 73.058594 L 86.332031 77.589844 L 95.398438 77.589844 L 95.398438 73.058594 " fill-opacity="1" fill-rule="nonzero"/><path fill="#daba02" d="M 104.460938 77.589844 L 104.460938 73.058594 L 99.929688 73.058594 L 99.929688 77.589844 L 104.460938 77.589844 " fill-opacity="1" fill-rule="nonzero"/><path fill="#daba02" d="M 108.992188 77.589844 L 118.058594 77.589844 L 118.058594 73.058594 L 108.992188 73.058594 L 108.992188 77.589844 " fill-opacity="1" fill-rule="nonzero"/><path fill="#daba02" d="M 113.527344 54.929688 L 108.992188 54.929688 L 108.992188 59.460938 L 113.527344 59.460938 L 113.527344 54.929688 " fill-opacity="1" fill-rule="nonzero"/><g clip-path="url(#6059a1fa9d)"><path fill="#daba02" d="M 70.46875 129.710938 L 34.210938 129.710938 L 34.210938 125.179688 L 93.140625 125.179688 L 93.140625 129.710938 Z M 68.203125 138.777344 L 59.136719 138.777344 L 59.136719 134.246094 L 68.203125 134.246094 Z M 75 145.574219 L 52.339844 145.574219 L 52.339844 143.308594 L 75 143.308594 Z M 93.128906 88.921875 L 93.140625 120.648438 L 34.210938 120.648438 L 34.210938 88.921875 Z M 93.128906 84.386719 L 34.210938 84.386719 C 31.714844 84.386719 29.679688 86.425781 29.679688 88.921875 L 29.679688 129.710938 C 29.679688 132.207031 31.714844 134.246094 34.210938 134.246094 L 54.605469 134.246094 L 54.605469 138.777344 L 50.074219 138.777344 C 48.824219 138.777344 47.808594 139.792969 47.808594 141.042969 L 47.808594 145.574219 L 45.539062 145.574219 L 45.539062 150.105469 L 81.800781 150.105469 L 81.800781 145.574219 L 79.535156 145.574219 L 79.535156 141.042969 C 79.535156 139.792969 78.515625 138.777344 77.265625 138.777344 L 72.734375 138.777344 L 72.734375 134.246094 L 93.128906 134.246094 C 95.625 134.246094 97.664062 132.207031 97.664062 129.710938 L 97.664062 88.921875 C 97.664062 86.425781 95.625 84.386719 93.128906 84.386719 " fill-opacity="1" fill-rule="nonzero"/></g><g clip-path="url(#0a3ddaedfa)"><path fill="#daba02" d="M 161.117188 143.308594 C 161.117188 144.558594 160.097656 145.574219 158.847656 145.574219 L 127.121094 145.574219 C 125.875 145.574219 124.855469 144.558594 124.855469 143.308594 L 124.855469 91.1875 C 124.855469 89.9375 125.875 88.921875 127.121094 88.921875 L 158.847656 88.921875 C 160.097656 88.921875 161.117188 89.9375 161.117188 91.1875 Z M 158.847656 84.386719 L 127.121094 84.386719 C 123.371094 84.386719 120.324219 87.433594 120.324219 91.1875 L 120.324219 143.308594 C 120.324219 147.0625 123.371094 150.105469 127.121094 150.105469 L 158.847656 150.105469 C 162.601562 150.105469 165.648438 147.0625 165.648438 143.308594 L 165.648438 91.1875 C 165.648438 87.433594 162.601562 84.386719 158.847656 84.386719 " fill-opacity="1" fill-rule="nonzero"/></g><path fill="#daba02" d="M 142.984375 138.777344 C 141.738281 138.777344 140.71875 139.792969 140.71875 141.042969 C 140.71875 142.289062 141.738281 143.308594 142.984375 143.308594 C 144.234375 143.308594 145.253906 142.289062 145.253906 141.042969 C 145.253906 139.792969 144.234375 138.777344 142.984375 138.777344 " fill-opacity="1" fill-rule="nonzero"/><path fill="#daba02" d="M 154.316406 122.914062 L 154.316406 131.976562 L 131.65625 131.976562 L 131.65625 95.71875 L 154.316406 95.71875 Z M 156.582031 91.1875 L 129.390625 91.1875 C 128.140625 91.1875 127.121094 92.203125 127.121094 93.453125 L 127.121094 134.246094 C 127.121094 135.492188 128.140625 136.511719 129.390625 136.511719 L 156.582031 136.511719 C 157.832031 136.511719 158.847656 135.492188 158.847656 134.246094 L 158.847656 93.453125 C 158.847656 92.203125 157.832031 91.1875 156.582031 91.1875 " fill-opacity="1" fill-rule="nonzero"/><path fill="#daba02" d="M 99.929688 116.113281 L 118.058594 116.113281 L 118.058594 111.582031 L 99.929688 111.582031 L 99.929688 116.113281 " fill-opacity="1" fill-rule="nonzero"/><path fill="#daba02" d="M 56.871094 97.984375 L 47.808594 97.984375 L 47.808594 102.519531 L 56.871094 102.519531 L 56.871094 97.984375 " fill-opacity="1" fill-rule="nonzero"/><path fill="#daba02" d="M 65.9375 97.984375 L 61.402344 97.984375 L 61.402344 102.519531 L 65.9375 102.519531 L 65.9375 97.984375 " fill-opacity="1" fill-rule="nonzero"/><path fill="#daba02" d="M 79.535156 97.984375 L 70.46875 97.984375 L 70.46875 102.519531 L 79.535156 102.519531 L 79.535156 97.984375 " fill-opacity="1" fill-rule="nonzero"/><path fill="#daba02" d="M 52.339844 111.582031 L 56.871094 111.582031 L 56.871094 107.050781 L 52.339844 107.050781 L 52.339844 111.582031 " fill-opacity="1" fill-rule="nonzero"/><path fill="#daba02" d="M 70.46875 107.050781 L 61.402344 107.050781 L 61.402344 111.582031 L 70.46875 111.582031 L 70.46875 107.050781 " fill-opacity="1" fill-rule="nonzero"/><path fill="#daba02" d="M 75 111.582031 L 79.535156 111.582031 L 79.535156 107.050781 L 75 107.050781 L 75 111.582031 " fill-opacity="1" fill-rule="nonzero"/><path fill="#daba02" d="M 138.453125 97.984375 L 133.921875 97.984375 L 133.921875 102.519531 L 138.453125 102.519531 L 138.453125 97.984375 " fill-opacity="1" fill-rule="nonzero"/><path fill="#daba02" d="M 140.71875 102.519531 L 152.050781 102.519531 L 152.050781 97.984375 L 140.71875 97.984375 L 140.71875 102.519531 " fill-opacity="1" fill-rule="nonzero"/><path fill="#daba02" d="M 142.984375 104.785156 L 133.921875 104.785156 L 133.921875 109.316406 L 142.984375 109.316406 L 142.984375 104.785156 " fill-opacity="1" fill-rule="nonzero"/><path fill="#daba02" d="M 133.921875 116.113281 L 145.253906 116.113281 L 145.253906 111.582031 L 133.921875 111.582031 L 133.921875 116.113281 " fill-opacity="1" fill-rule="nonzero"/><path fill="#daba02" d="M 147.519531 116.113281 L 152.050781 116.113281 L 152.050781 111.582031 L 147.519531 111.582031 L 147.519531 116.113281 " fill-opacity="1" fill-rule="nonzero"/><path fill="#daba02" d="M 310.09375 143.851562 L 247.066406 143.851562 C 246.1875 143.851562 245.476562 143.140625 245.476562 142.261719 C 245.476562 141.386719 246.1875 140.675781 247.066406 140.675781 L 310.097656 140.675781 C 310.972656 140.675781 311.683594 141.386719 311.683594 142.261719 C 311.683594 143.140625 310.96875 143.851562 310.09375 143.851562 Z M 310.09375 143.851562 " fill-opacity="1" fill-rule="evenodd"/><path fill="#daba02" d="M 310.09375 161.050781 L 278.816406 161.050781 C 277.941406 161.050781 277.230469 160.339844 277.230469 159.464844 C 277.230469 158.585938 277.941406 157.878906 278.816406 157.878906 L 310.097656 157.878906 C 310.972656 157.878906 311.683594 158.585938 311.683594 159.464844 C 311.683594 160.339844 310.96875 161.054688 310.09375 161.050781 Z M 310.09375 161.050781 " fill-opacity="1" fill-rule="evenodd"/><path fill="#daba02" d="M 310.09375 178.257812 L 278.816406 178.257812 C 277.941406 178.257812 277.230469 177.546875 277.230469 176.667969 C 277.230469 175.792969 277.941406 175.082031 278.816406 175.082031 L 310.097656 175.082031 C 310.972656 175.082031 311.683594 175.792969 311.683594 176.667969 C 311.683594 177.546875 310.96875 178.257812 310.09375 178.257812 Z M 310.09375 178.257812 " fill-opacity="1" fill-rule="evenodd"/><path fill="#daba02" d="M 260.019531 195.457031 L 247.0625 195.457031 C 246.1875 195.457031 245.476562 194.746094 245.476562 193.871094 C 245.476562 192.996094 246.1875 192.285156 247.0625 192.285156 L 260.019531 192.285156 C 260.894531 192.285156 261.605469 192.996094 261.605469 193.871094 C 261.605469 194.746094 260.894531 195.457031 260.019531 195.457031 Z M 260.019531 195.457031 " fill-opacity="1" fill-rule="evenodd"/><path fill="#daba02" d="M 310.09375 229.863281 L 279.195312 229.863281 C 278.316406 229.863281 277.605469 229.152344 277.605469 228.277344 C 277.605469 227.402344 278.316406 226.691406 279.195312 226.691406 L 310.09375 226.691406 C 310.96875 226.691406 311.679688 227.402344 311.679688 228.277344 C 311.683594 229.152344 310.96875 229.863281 310.09375 229.863281 Z M 310.09375 229.863281 " fill-opacity="1" fill-rule="evenodd"/><path fill="#daba02" d="M 288.304688 195.457031 L 275.582031 195.457031 C 274.707031 195.457031 273.996094 194.746094 273.996094 193.871094 C 273.996094 192.996094 274.707031 192.285156 275.582031 192.285156 L 288.304688 192.285156 C 289.183594 192.285156 289.894531 192.996094 289.894531 193.871094 C 289.894531 194.746094 289.183594 195.457031 288.304688 195.457031 Z M 288.304688 195.457031 " fill-opacity="1" fill-rule="evenodd"/><path fill="#daba02" d="M 278.582031 212.660156 L 247.0625 212.660156 C 246.1875 212.660156 245.476562 211.949219 245.476562 211.074219 C 245.476562 210.195312 246.1875 209.484375 247.0625 209.484375 L 278.578125 209.484375 C 279.453125 209.484375 280.164062 210.195312 280.164062 211.074219 C 280.167969 211.949219 279.453125 212.660156 278.582031 212.660156 Z M 278.582031 212.660156 " fill-opacity="1" fill-rule="evenodd"/><g clip-path="url(#17750ab82c)"><path fill="#daba02" d="M 324.609375 188.558594 C 323.730469 188.558594 323.019531 187.847656 323.019531 186.96875 L 323.019531 132.101562 C 323.019531 127.476562 319.261719 123.710938 314.632812 123.710938 L 242.523438 123.710938 C 237.894531 123.710938 234.132812 127.472656 234.132812 132.101562 L 234.132812 151.609375 C 234.132812 152.484375 233.425781 153.195312 232.546875 153.195312 C 231.671875 153.195312 230.960938 152.484375 230.960938 151.609375 L 230.960938 132.101562 C 230.960938 125.722656 236.144531 120.539062 242.523438 120.539062 L 314.636719 120.539062 C 321.011719 120.539062 326.199219 125.722656 326.199219 132.101562 L 326.199219 186.96875 C 326.199219 187.847656 325.484375 188.558594 324.609375 188.558594 Z M 232.546875 224.597656 C 231.671875 224.597656 230.960938 223.886719 230.960938 223.011719 L 230.960938 181.457031 C 230.960938 180.582031 231.671875 179.871094 232.546875 179.871094 C 233.425781 179.871094 234.132812 180.582031 234.132812 181.457031 L 234.132812 223.011719 C 234.136719 223.886719 233.425781 224.597656 232.546875 224.597656 Z M 314.636719 250 L 279.195312 250 C 278.316406 250 277.605469 249.289062 277.605469 248.414062 C 277.605469 247.539062 278.316406 246.828125 279.195312 246.828125 L 314.636719 246.828125 C 319.261719 246.828125 323.019531 243.066406 323.019531 238.441406 L 323.019531 216.820312 C 323.019531 215.941406 323.730469 215.234375 324.609375 215.234375 C 325.484375 215.234375 326.195312 215.941406 326.195312 216.820312 L 326.195312 238.441406 C 326.199219 244.8125 321.011719 250 314.636719 250 Z M 314.636719 250 " fill-opacity="1" fill-rule="evenodd"/></g><path fill="#daba02" d="M 321.5 211.105469 C 318.039062 211.105469 315.214844 208.769531 315.214844 205.894531 C 315.214844 205.019531 315.925781 204.308594 316.800781 204.308594 C 317.683594 204.308594 318.390625 205.019531 318.390625 205.894531 C 318.390625 206.980469 319.84375 207.933594 321.5 207.933594 C 323.160156 207.933594 324.613281 206.980469 324.613281 205.894531 C 324.613281 204.792969 323.210938 204.183594 320.894531 203.3125 C 318.363281 202.363281 315.214844 201.175781 315.214844 197.886719 C 315.214844 195.011719 318.039062 192.675781 321.5 192.675781 C 324.964844 192.675781 327.785156 195.011719 327.785156 197.886719 C 327.785156 198.765625 327.078125 199.472656 326.199219 199.472656 C 325.320312 199.472656 324.613281 198.765625 324.613281 197.886719 C 324.613281 196.800781 323.160156 195.847656 321.5 195.847656 C 319.84375 195.847656 318.390625 196.800781 318.390625 197.886719 C 318.390625 198.902344 319.824219 199.519531 322.011719 200.34375 C 324.585938 201.3125 327.785156 202.519531 327.785156 205.898438 C 327.789062 208.769531 324.964844 211.105469 321.5 211.105469 Z M 321.5 211.105469 " fill-opacity="1" fill-rule="evenodd"/><path fill="#daba02" d="M 305.570312 211.105469 C 300.292969 211.105469 295.996094 206.972656 295.996094 201.890625 C 295.996094 196.804688 300.289062 192.671875 305.570312 192.671875 C 307.628906 192.671875 309.667969 193.328125 311.316406 194.515625 C 312.027344 195.027344 312.1875 196.019531 311.675781 196.730469 C 311.160156 197.441406 310.167969 197.601562 309.457031 197.089844 C 308.347656 196.289062 306.964844 195.847656 305.570312 195.847656 C 302.046875 195.847656 299.171875 198.558594 299.171875 201.890625 C 299.171875 205.222656 302.046875 207.933594 305.570312 207.933594 C 306.96875 207.933594 308.347656 207.492188 309.457031 206.691406 C 310.167969 206.179688 311.160156 206.339844 311.675781 207.050781 C 312.1875 207.761719 312.027344 208.753906 311.316406 209.265625 C 309.667969 210.453125 307.628906 211.105469 305.570312 211.105469 Z M 305.570312 211.105469 " fill-opacity="1" fill-rule="evenodd"/><path fill="#daba02" d="M 337.316406 211.105469 C 333.851562 211.105469 331.027344 208.769531 331.027344 205.894531 C 331.027344 205.019531 331.738281 204.308594 332.613281 204.308594 C 333.492188 204.308594 334.203125 205.019531 334.203125 205.894531 C 334.203125 206.980469 335.65625 207.933594 337.3125 207.933594 C 338.972656 207.933594 340.425781 206.980469 340.425781 205.894531 C 340.425781 204.792969 339.023438 204.183594 336.707031 203.3125 C 334.175781 202.363281 331.027344 201.175781 331.027344 197.886719 C 331.027344 195.011719 333.851562 192.675781 337.3125 192.675781 C 340.777344 192.675781 343.597656 195.011719 343.597656 197.886719 C 343.597656 198.765625 342.886719 199.472656 342.011719 199.472656 C 341.132812 199.472656 340.425781 198.765625 340.425781 197.886719 C 340.425781 196.800781 338.972656 195.847656 337.3125 195.847656 C 335.65625 195.847656 334.203125 196.800781 334.203125 197.886719 C 334.203125 198.902344 335.636719 199.519531 337.824219 200.34375 C 340.398438 201.3125 343.597656 202.519531 343.597656 205.898438 C 343.605469 208.769531 340.78125 211.105469 337.316406 211.105469 Z M 337.316406 211.105469 " fill-opacity="1" fill-rule="evenodd"/><path fill="#daba02" d="M 222.328125 174.226562 C 221.453125 174.226562 220.742188 173.515625 220.742188 172.636719 L 220.742188 160.4375 C 220.742188 159.558594 221.453125 158.847656 222.328125 158.847656 C 223.203125 158.847656 223.914062 159.558594 223.914062 160.4375 L 223.914062 172.636719 C 223.914062 173.515625 223.207031 174.226562 222.328125 174.226562 Z M 222.328125 174.226562 " fill-opacity="1" fill-rule="evenodd"/><path fill="#daba02" d="M 229.890625 174.226562 C 229.011719 174.226562 228.300781 173.515625 228.300781 172.636719 L 228.300781 160.4375 C 228.300781 159.558594 229.011719 158.847656 229.890625 158.847656 C 230.765625 158.847656 231.476562 159.558594 231.476562 160.4375 L 231.476562 172.636719 C 231.476562 173.515625 230.765625 174.226562 229.890625 174.226562 Z M 229.890625 174.226562 " fill-opacity="1" fill-rule="evenodd"/><path fill="#daba02" d="M 229.890625 168.113281 L 222.328125 168.113281 C 221.453125 168.113281 220.742188 167.402344 220.742188 166.527344 C 220.742188 165.648438 221.453125 164.9375 222.328125 164.9375 L 229.890625 164.9375 C 230.765625 164.9375 231.476562 165.648438 231.476562 166.527344 C 231.476562 167.402344 230.765625 168.113281 229.890625 168.113281 Z M 229.890625 168.113281 " fill-opacity="1" fill-rule="evenodd"/><path fill="#daba02" d="M 259.429688 174.226562 C 258.554688 174.226562 257.84375 173.515625 257.84375 172.636719 L 257.84375 168.308594 L 255.765625 173.253906 C 255.519531 173.84375 254.945312 174.226562 254.304688 174.226562 C 253.664062 174.226562 253.085938 173.84375 252.839844 173.253906 L 250.761719 168.308594 L 250.761719 172.636719 C 250.761719 173.515625 250.050781 174.226562 249.175781 174.226562 C 248.296875 174.226562 247.585938 173.515625 247.585938 172.636719 L 247.585938 160.433594 C 247.585938 159.675781 248.117188 159.023438 248.859375 158.878906 C 249.601562 158.726562 250.347656 159.121094 250.640625 159.820312 L 254.304688 168.542969 L 257.96875 159.820312 C 258.261719 159.121094 259.007812 158.730469 259.746094 158.878906 C 260.488281 159.027344 261.023438 159.679688 261.023438 160.433594 L 261.023438 172.636719 C 261.019531 173.515625 260.308594 174.226562 259.429688 174.226562 Z M 259.429688 174.226562 " fill-opacity="1" fill-rule="evenodd"/><path fill="#daba02" d="M 272.320312 174.226562 L 263.945312 174.226562 C 263.066406 174.226562 262.355469 173.515625 262.355469 172.636719 L 262.355469 160.4375 C 262.355469 159.558594 263.066406 158.847656 263.945312 158.847656 C 264.820312 158.847656 265.53125 159.558594 265.53125 160.4375 L 265.53125 171.050781 L 272.320312 171.050781 C 273.199219 171.050781 273.90625 171.761719 273.90625 172.636719 C 273.90625 173.515625 273.199219 174.226562 272.320312 174.226562 Z M 272.320312 174.226562 " fill-opacity="1" fill-rule="evenodd"/><path fill="#daba02" d="M 244.660156 162.019531 L 234.402344 162.019531 C 233.523438 162.019531 232.816406 161.308594 232.816406 160.433594 C 232.816406 159.554688 233.523438 158.84375 234.402344 158.84375 L 244.660156 158.84375 C 245.539062 158.84375 246.25 159.554688 246.25 160.433594 C 246.25 161.308594 245.539062 162.019531 244.660156 162.019531 Z M 244.660156 162.019531 " fill-opacity="1" fill-rule="evenodd"/><path fill="#daba02" d="M 239.53125 174.226562 C 238.65625 174.226562 237.945312 173.515625 237.945312 172.636719 L 237.945312 160.4375 C 237.945312 159.558594 238.65625 158.847656 239.53125 158.847656 C 240.410156 158.847656 241.121094 159.558594 241.121094 160.4375 L 241.121094 172.636719 C 241.121094 173.515625 240.410156 174.226562 239.53125 174.226562 Z M 239.53125 174.226562 " fill-opacity="1" fill-rule="evenodd"/><path fill="#daba02" d="M 238.78125 247.84375 C 234.988281 247.84375 231.90625 244.820312 231.90625 241.101562 C 231.90625 240.226562 232.613281 239.515625 233.492188 239.515625 C 234.371094 239.515625 235.078125 240.226562 235.078125 241.101562 C 235.078125 243.070312 236.738281 244.671875 238.78125 244.671875 C 240.824219 244.671875 242.488281 243.070312 242.488281 241.101562 L 242.488281 229.621094 C 242.488281 228.742188 243.195312 228.03125 244.074219 228.03125 C 244.949219 228.03125 245.660156 228.742188 245.660156 229.621094 L 245.660156 241.101562 C 245.660156 244.820312 242.574219 247.84375 238.78125 247.84375 Z M 238.78125 247.84375 " fill-opacity="1" fill-rule="evenodd"/><path fill="#daba02" d="M 256.792969 247.84375 C 253.09375 247.84375 250.082031 245.359375 250.082031 242.304688 C 250.082031 241.425781 250.792969 240.71875 251.667969 240.71875 C 252.546875 240.71875 253.257812 241.425781 253.257812 242.304688 C 253.257812 243.585938 254.875 244.667969 256.789062 244.667969 C 258.707031 244.667969 260.320312 243.585938 260.320312 242.304688 C 260.320312 241.011719 258.753906 240.328125 256.175781 239.359375 C 253.460938 238.335938 250.078125 237.058594 250.078125 233.578125 C 250.078125 230.519531 253.089844 228.039062 256.789062 228.039062 C 260.488281 228.039062 263.496094 230.519531 263.496094 233.578125 C 263.496094 234.457031 262.789062 235.164062 261.910156 235.164062 C 261.035156 235.164062 260.324219 234.457031 260.324219 233.578125 C 260.324219 232.296875 258.707031 231.214844 256.792969 231.214844 C 254.878906 231.214844 253.257812 232.300781 253.257812 233.578125 C 253.257812 234.777344 254.785156 235.441406 257.300781 236.386719 C 260.066406 237.429688 263.5 238.726562 263.5 242.308594 C 263.5 245.359375 260.488281 247.84375 256.792969 247.84375 Z M 256.792969 247.84375 " fill-opacity="1" fill-rule="evenodd"/><g clip-path="url(#b4b51b5c0d)"><path fill="#daba02" d="M 217.417969 179.871094 L 277.230469 179.871094 L 277.230469 153.195312 L 217.417969 153.195312 Z M 278.816406 183.046875 L 215.832031 183.046875 C 214.957031 183.046875 214.246094 182.335938 214.246094 181.457031 L 214.246094 151.605469 C 214.246094 150.730469 214.957031 150.019531 215.832031 150.019531 L 278.816406 150.019531 C 279.691406 150.019531 280.402344 150.730469 280.402344 151.605469 L 280.402344 181.457031 C 280.402344 182.335938 279.691406 183.046875 278.816406 183.046875 Z M 278.816406 183.046875 " fill-opacity="1" fill-rule="evenodd"/></g><g clip-path="url(#1fa79e2d5d)"><path fill="#daba02" d="M 289.894531 215.234375 L 349.703125 215.234375 L 349.703125 188.558594 L 289.894531 188.558594 Z M 351.289062 218.40625 L 288.304688 218.40625 C 287.429688 218.40625 286.71875 217.695312 286.71875 216.820312 L 286.71875 186.96875 C 286.71875 186.089844 287.429688 185.378906 288.304688 185.378906 L 351.289062 185.378906 C 352.167969 185.378906 352.878906 186.089844 352.878906 186.96875 L 352.878906 216.820312 C 352.878906 217.695312 352.167969 218.410156 351.289062 218.40625 Z M 351.289062 218.40625 " fill-opacity="1" fill-rule="evenodd"/></g><g clip-path="url(#fe017c30dd)"><path fill="#daba02" d="M 217.796875 251.277344 L 277.605469 251.277344 L 277.605469 224.597656 L 217.796875 224.597656 C 217.796875 224.597656 217.796875 251.277344 217.796875 251.277344 Z M 279.195312 254.449219 L 216.210938 254.449219 C 215.332031 254.449219 214.625 253.742188 214.625 252.863281 L 214.625 223.011719 C 214.625 222.132812 215.332031 221.425781 216.210938 221.425781 L 279.195312 221.425781 C 280.074219 221.425781 280.78125 222.132812 280.78125 223.011719 L 280.78125 252.863281 C 280.78125 253.742188 280.074219 254.449219 279.195312 254.449219 Z M 279.195312 254.449219 " fill-opacity="1" fill-rule="evenodd"/></g><path fill="#daba02" d="M 42.03125 318.035156 L 42.015625 318.027344 C 40.984375 317.441406 39.675781 317.800781 39.085938 318.832031 C 38.5 319.863281 38.863281 321.183594 39.894531 321.773438 C 40.230469 321.964844 40.597656 322.054688 40.960938 322.054688 C 41.707031 322.054688 42.433594 321.667969 42.832031 320.972656 C 43.421875 319.941406 43.0625 318.625 42.03125 318.035156 Z M 42.03125 318.035156 " fill-opacity="1" fill-rule="nonzero"/><path fill="#daba02" d="M 40.949219 300.039062 C 42.136719 300.039062 43.101562 299.078125 43.101562 297.886719 C 43.101562 296.699219 42.136719 295.734375 40.949219 295.734375 L 40.933594 295.734375 C 39.746094 295.734375 38.789062 296.699219 38.789062 297.886719 C 38.789062 299.078125 39.761719 300.039062 40.949219 300.039062 Z M 40.949219 300.039062 " fill-opacity="1" fill-rule="nonzero"/><path fill="#daba02" d="M 41.925781 274.453125 L 41.910156 274.445312 C 40.847656 273.917969 39.5625 274.347656 39.03125 275.414062 C 38.5 276.472656 38.9375 277.769531 40 278.300781 C 40.308594 278.457031 40.636719 278.53125 40.960938 278.53125 C 41.75 278.53125 42.511719 278.09375 42.886719 277.339844 C 43.417969 276.277344 42.988281 274.984375 41.925781 274.453125 Z M 41.925781 274.453125 " fill-opacity="1" fill-rule="nonzero"/><g clip-path="url(#d911436f55)"><path fill="#daba02" d="M 124.433594 276.027344 L 159.003906 276.027344 C 162.085938 276.027344 164.589844 273.523438 164.589844 270.441406 L 164.589844 231.269531 C 164.589844 228.1875 162.085938 225.679688 159.003906 225.679688 L 124.433594 225.679688 C 121.355469 225.679688 118.847656 228.1875 118.847656 231.269531 L 118.847656 248.222656 L 113.738281 248.222656 C 109.101562 248.222656 104.09375 252.03125 104.09375 258.191406 L 104.09375 290.085938 L 90.066406 290.085938 L 90.066406 260.257812 C 90.066406 252.847656 75.195312 248.972656 60.507812 248.972656 C 45.820312 248.972656 30.949219 252.847656 30.949219 260.257812 L 30.949219 324.21875 C 30.949219 331.628906 45.820312 335.507812 60.507812 335.507812 C 75.195312 335.507812 90.066406 331.628906 90.066406 324.21875 L 90.066406 294.390625 L 104.09375 294.390625 L 104.09375 326.089844 C 104.09375 332.246094 109.101562 336.058594 113.738281 336.058594 L 118.824219 336.058594 L 118.824219 353.496094 C 118.824219 356.578125 121.332031 359.082031 124.410156 359.082031 L 158.980469 359.082031 C 162.0625 359.082031 164.566406 356.578125 164.566406 353.496094 L 164.566406 314.324219 C 164.566406 311.242188 162.0625 308.738281 158.980469 308.738281 L 124.410156 308.738281 C 121.332031 308.738281 118.824219 311.242188 118.824219 314.324219 L 118.824219 331.753906 L 113.738281 331.753906 C 111.167969 331.753906 108.398438 329.589844 108.398438 326.089844 L 108.398438 258.191406 C 108.398438 254.691406 111.167969 252.523438 113.738281 252.523438 L 118.847656 252.523438 L 118.847656 270.441406 C 118.847656 273.523438 121.351562 276.027344 124.433594 276.027344 Z M 85.761719 281.578125 C 85.761719 283.949219 76.847656 288.5625 60.507812 288.5625 C 44.167969 288.5625 35.253906 283.949219 35.253906 281.578125 L 35.253906 266.398438 C 40.722656 269.789062 50.644531 271.546875 60.507812 271.546875 C 70.371094 271.546875 80.292969 269.789062 85.761719 266.398438 Z M 35.253906 287.71875 C 40.722656 291.109375 50.644531 292.867188 60.507812 292.867188 C 70.371094 292.867188 80.292969 291.109375 85.761719 287.71875 L 85.761719 302.898438 C 85.761719 305.269531 76.847656 309.882812 60.507812 309.882812 C 44.167969 309.882812 35.253906 305.269531 35.253906 302.898438 Z M 60.507812 253.277344 C 76.847656 253.277344 85.761719 257.890625 85.761719 260.257812 C 85.761719 262.628906 76.847656 267.242188 60.507812 267.242188 C 44.167969 267.242188 35.253906 262.628906 35.253906 260.257812 C 35.253906 257.890625 44.167969 253.277344 60.507812 253.277344 Z M 60.507812 331.203125 C 44.167969 331.203125 35.253906 326.589844 35.253906 324.21875 L 35.253906 309.039062 C 40.722656 312.429688 50.644531 314.183594 60.507812 314.183594 C 70.371094 314.183594 80.292969 312.429688 85.761719 309.039062 L 85.761719 324.21875 C 85.761719 326.589844 76.847656 331.203125 60.507812 331.203125 Z M 123.128906 314.324219 C 123.128906 313.628906 123.714844 313.042969 124.410156 313.042969 L 158.980469 313.042969 C 159.675781 313.042969 160.265625 313.628906 160.265625 314.324219 L 160.265625 353.496094 C 160.265625 354.191406 159.675781 354.78125 158.980469 354.78125 L 124.410156 354.78125 C 123.714844 354.78125 123.128906 354.191406 123.128906 353.496094 Z M 123.152344 231.269531 C 123.152344 230.570312 123.738281 229.984375 124.433594 229.984375 L 159.003906 229.984375 C 159.699219 229.984375 160.289062 230.570312 160.289062 231.269531 L 160.289062 270.441406 C 160.289062 271.136719 159.699219 271.722656 159.003906 271.722656 L 124.433594 271.722656 C 123.738281 271.722656 123.152344 271.136719 123.152344 270.441406 Z M 123.152344 231.269531 " fill-opacity="1" fill-rule="nonzero"/></g><path fill="#daba02" d="M 131.675781 252.378906 C 132.097656 252.800781 132.648438 253.011719 133.199219 253.011719 C 133.75 253.011719 134.300781 252.800781 134.71875 252.378906 C 135.558594 251.539062 135.558594 250.175781 134.71875 249.335938 L 131.707031 246.324219 L 134.949219 243.265625 C 135.8125 242.449219 135.851562 241.085938 135.035156 240.222656 C 134.222656 239.355469 132.855469 239.320312 131.992188 240.136719 L 127.140625 244.714844 C 126.71875 245.113281 126.476562 245.667969 126.46875 246.246094 C 126.457031 246.828125 126.6875 247.390625 127.097656 247.800781 Z M 131.675781 252.378906 " fill-opacity="1" fill-rule="nonzero"/><path fill="#daba02" d="M 139.160156 257.746094 C 139.316406 257.777344 139.46875 257.792969 139.621094 257.792969 C 140.609375 257.792969 141.503906 257.109375 141.722656 256.101562 L 145.648438 238.058594 C 145.902344 236.894531 145.164062 235.75 144.003906 235.496094 C 142.84375 235.246094 141.695312 235.980469 141.445312 237.140625 L 137.515625 255.183594 C 137.265625 256.347656 138 257.492188 139.160156 257.746094 Z M 139.160156 257.746094 " fill-opacity="1" fill-rule="nonzero"/><path fill="#daba02" d="M 151.738281 246.324219 L 148.722656 249.335938 C 147.878906 250.175781 147.878906 251.539062 148.71875 252.378906 C 149.140625 252.800781 149.6875 253.011719 150.242188 253.011719 C 150.792969 253.011719 151.339844 252.800781 151.761719 252.382812 L 156.347656 247.800781 C 156.757812 247.390625 156.988281 246.828125 156.980469 246.246094 C 156.972656 245.664062 156.726562 245.113281 156.300781 244.710938 L 151.441406 240.132812 C 150.578125 239.320312 149.21875 239.359375 148.402344 240.226562 C 147.585938 241.089844 147.625 242.453125 148.492188 243.265625 Z M 151.738281 246.324219 " fill-opacity="1" fill-rule="nonzero"/><path fill="#daba02" d="M 143.175781 262.160156 L 143.160156 262.152344 C 142.085938 261.652344 140.808594 262.117188 140.308594 263.195312 C 139.804688 264.273438 140.277344 265.558594 141.355469 266.0625 C 141.648438 266.199219 141.960938 266.261719 142.265625 266.261719 C 143.074219 266.261719 143.851562 265.804688 144.214844 265.019531 C 144.71875 263.945312 144.253906 262.664062 143.175781 262.160156 Z M 143.175781 262.160156 " fill-opacity="1" fill-rule="nonzero"/><path fill="#daba02" d="M 135.382812 262.179688 C 134.320312 261.652344 133.03125 262.082031 132.5 263.144531 C 131.96875 264.207031 132.40625 265.503906 133.472656 266.035156 C 133.78125 266.191406 134.109375 266.261719 134.429688 266.261719 C 135.222656 266.261719 135.980469 265.828125 136.359375 265.074219 C 136.890625 264.011719 136.460938 262.71875 135.394531 262.1875 Z M 135.382812 262.179688 " fill-opacity="1" fill-rule="nonzero"/><path fill="#daba02" d="M 151.007812 262.160156 L 150.992188 262.152344 C 149.914062 261.652344 148.640625 262.117188 148.140625 263.195312 C 147.636719 264.273438 148.109375 265.558594 149.1875 266.0625 C 149.480469 266.199219 149.792969 266.261719 150.097656 266.261719 C 150.90625 266.261719 151.679688 265.804688 152.046875 265.019531 C 152.550781 263.945312 152.082031 262.664062 151.007812 262.160156 Z M 151.007812 262.160156 " fill-opacity="1" fill-rule="nonzero"/><path fill="#daba02" d="M 131.65625 335.4375 C 132.074219 335.855469 132.625 336.066406 133.175781 336.066406 C 133.726562 336.066406 134.277344 335.855469 134.695312 335.4375 C 135.535156 334.597656 135.535156 333.234375 134.695312 332.394531 L 131.679688 329.378906 L 134.921875 326.320312 C 135.789062 325.507812 135.828125 324.144531 135.015625 323.28125 C 134.199219 322.414062 132.835938 322.375 131.972656 323.191406 L 127.113281 327.769531 C 126.6875 328.167969 126.445312 328.722656 126.4375 329.304688 C 126.429688 329.886719 126.65625 330.445312 127.066406 330.855469 Z M 131.65625 335.4375 " fill-opacity="1" fill-rule="nonzero"/><path fill="#daba02" d="M 139.140625 340.800781 C 139.292969 340.835938 139.449219 340.847656 139.597656 340.847656 C 140.589844 340.847656 141.480469 340.164062 141.699219 339.15625 L 145.625 321.113281 C 145.878906 319.949219 145.140625 318.804688 143.980469 318.550781 C 142.828125 318.296875 141.671875 319.035156 141.421875 320.195312 L 137.496094 338.238281 C 137.242188 339.402344 137.976562 340.546875 139.140625 340.800781 Z M 139.140625 340.800781 " fill-opacity="1" fill-rule="nonzero"/><path fill="#daba02" d="M 151.710938 329.378906 L 148.695312 332.394531 C 147.855469 333.234375 147.855469 334.597656 148.695312 335.4375 C 149.117188 335.855469 149.667969 336.066406 150.21875 336.066406 C 150.769531 336.066406 151.320312 335.855469 151.738281 335.4375 L 156.320312 330.855469 C 156.730469 330.445312 156.957031 329.886719 156.949219 329.304688 C 156.941406 328.722656 156.695312 328.167969 156.273438 327.769531 L 151.421875 323.191406 C 150.558594 322.378906 149.195312 322.414062 148.382812 323.277344 C 147.566406 324.144531 147.605469 325.507812 148.46875 326.320312 Z M 151.710938 329.378906 " fill-opacity="1" fill-rule="nonzero"/><path fill="#daba02" d="M 143.847656 345.742188 C 143.0625 344.847656 141.707031 344.761719 140.816406 345.542969 C 139.921875 346.328125 139.832031 347.691406 140.617188 348.582031 C 141.042969 349.070312 141.636719 349.320312 142.238281 349.320312 C 142.738281 349.320312 143.242188 349.144531 143.652344 348.789062 C 144.546875 348.003906 144.636719 346.644531 143.855469 345.75 Z M 143.847656 345.742188 " fill-opacity="1" fill-rule="nonzero"/><path fill="#daba02" d="M 135.410156 345.257812 C 134.359375 344.703125 133.066406 345.101562 132.503906 346.152344 C 131.945312 347.199219 132.351562 348.507812 133.398438 349.066406 C 133.722656 349.238281 134.066406 349.320312 134.410156 349.320312 C 135.179688 349.320312 135.921875 348.90625 136.308594 348.179688 C 136.867188 347.132812 136.472656 345.828125 135.425781 345.269531 Z M 135.410156 345.257812 " fill-opacity="1" fill-rule="nonzero"/><path fill="#daba02" d="M 151.679688 345.742188 C 150.898438 344.847656 149.539062 344.761719 148.644531 345.542969 C 147.753906 346.328125 147.664062 347.691406 148.449219 348.582031 C 148.875 349.070312 149.46875 349.320312 150.066406 349.320312 C 150.570312 349.320312 151.074219 349.144531 151.484375 348.789062 C 152.378906 348.003906 152.46875 346.644531 151.683594 345.75 Z M 151.679688 345.742188 " fill-opacity="1" fill-rule="nonzero"/></svg>