<svg xmlns="http://www.w3.org/2000/svg" xmlns:xlink="http://www.w3.org/1999/xlink" width="500" zoomAndPan="magnify" viewBox="0 0 375 374.999991" height="500" preserveAspectRatio="xMidYMid meet" version="1.0"><path fill="#daba02" d="M 190.597656 30.84375 C 186.464844 31.320312 190.757812 56.519531 180.878906 88.378906 C 177.964844 97.765625 169.996094 120.003906 152.964844 139.597656 C 122.828125 174.160156 80.695312 181.773438 65.121094 183.78125 C 72.75 186.082031 82.917969 189.679688 94.253906 195.363281 C 110.039062 203.324219 133.898438 218.238281 154.582031 244.253906 C 181.167969 277.703125 188.851562 312.265625 191.417969 329.027344 C 191.3125 318.292969 192.398438 302.03125 198.808594 283.652344 C 208.101562 256.972656 223.460938 240.554688 231.621094 232.011719 C 258.976562 203.375 290.597656 191.636719 307.941406 186.691406 C 297.003906 181.296875 281.460938 172.441406 265.199219 158.53125 C 231.40625 129.65625 215.410156 96.921875 210.566406 86.1875 C 196.53125 55.273438 194.648438 30.367188 190.597656 30.84375 Z M 190.597656 30.84375 " fill-opacity="1" fill-rule="nonzero"/><path fill="#daba02" d="M 186.625 30.84375 C 183.289062 60.988281 179.632812 92.320312 163.53125 118.761719 C 150.238281 140.601562 130.085938 157.894531 106.832031 168.421875 C 93.722656 174.371094 79.476562 177.992188 65.097656 178.945312 C 60.011719 179.289062 59.984375 187.21875 65.097656 186.875 C 92.613281 185.027344 118.804688 174.265625 140.253906 157.023438 C 162.765625 138.910156 178.019531 114.265625 185.511719 86.503906 C 190.414062 68.3125 192.503906 49.484375 194.570312 30.816406 C 195.125 25.765625 187.179688 25.820312 186.625 30.84375 Z M 186.625 30.84375 " fill-opacity="1" fill-rule="nonzero"/><path fill="#daba02" d="M 64.0625 187.617188 C 87.792969 194.730469 110.089844 206.917969 128.8125 223.128906 C 155.667969 246.371094 174.8125 277.414062 183.765625 311.734375 C 186.625 322.65625 188.453125 333.789062 189.140625 345.050781 C 189.457031 350.128906 197.402344 350.15625 197.085938 345.050781 C 195.445312 318.425781 187.976562 292.167969 175.34375 268.660156 C 158.15625 236.667969 131.222656 210.25 99.046875 193.433594 C 88.558594 187.933594 77.515625 183.414062 66.15625 180 C 61.28125 178.496094 59.164062 186.136719 64.0625 187.617188 Z M 64.0625 187.617188 " fill-opacity="1" fill-rule="nonzero"/><path fill="#daba02" d="M 196.875 343.414062 C 192.609375 306.5 203.019531 269.480469 227.9375 241.613281 C 245.125 222.386719 267.503906 207.949219 291.335938 198.324219 C 297.824219 195.707031 304.472656 193.382812 311.226562 191.582031 C 316.152344 190.289062 314.058594 182.621094 309.109375 183.941406 C 291.867188 188.515625 275.15625 196 259.929688 205.226562 C 232.625 221.78125 209.902344 245.417969 197.722656 275.167969 C 188.902344 296.691406 186.253906 320.382812 188.929688 343.414062 C 189.511719 348.410156 197.484375 348.464844 196.875 343.414062 Z M 196.875 343.414062 " fill-opacity="1" fill-rule="nonzero"/><path fill="#daba02" d="M 186.835938 31.609375 C 204.15625 85.179688 230.851562 139.785156 277.566406 173.707031 C 286.703125 180.34375 296.527344 185.976562 306.855469 190.550781 C 311.492188 192.613281 315.542969 185.765625 310.855469 183.703125 C 267.132812 164.347656 236.808594 126.007812 216.152344 83.992188 C 207.546875 66.40625 200.527344 48.109375 194.492188 29.496094 C 192.929688 24.65625 185.273438 26.71875 186.835938 31.609375 Z M 186.835938 31.609375 " fill-opacity="1" fill-rule="nonzero"/></svg>