<svg xmlns="http://www.w3.org/2000/svg" xmlns:xlink="http://www.w3.org/1999/xlink" width="500" zoomAndPan="magnify" viewBox="0 0 375 374.999991" height="500" preserveAspectRatio="xMidYMid meet" version="1.0"><defs><clipPath id="4c095c9653"><path d="M 4.589844 37.5 L 370.589844 37.5 L 370.589844 304.5 L 4.589844 304.5 Z M 4.589844 37.5 " clip-rule="nonzero"/></clipPath></defs><g clip-path="url(#4c095c9653)"><path  d="M 46.96875 37.9375 C 42.628906 37.9375 38.5625 38.761719 34.664062 39.96875 L 75.640625 66.042969 L 299.539062 66.042969 L 340.519531 39.96875 C 336.617188 38.761719 332.554688 37.9375 328.214844 37.9375 Z M 20.4375 47.601562 C 10.933594 55.339844 4.78125 66.976562 4.78125 80.097656 L 4.78125 262.78125 C 4.78125 286 23.730469 304.9375 46.96875 304.9375 L 328.214844 304.9375 C 351.449219 304.9375 370.402344 286 370.402344 262.78125 L 370.402344 80.097656 C 370.402344 66.976562 364.25 55.339844 354.746094 47.601562 L 187.589844 153.875 Z M 46.96875 114.019531 L 187.589844 203.496094 L 328.214844 114.019531 L 328.214844 276.832031 L 46.96875 276.832031 Z M 46.96875 114.019531 " fill-opacity="1" fill-rule="nonzero"/></g></svg>