<svg xmlns="http://www.w3.org/2000/svg" xmlns:xlink="http://www.w3.org/1999/xlink" width="500" zoomAndPan="magnify" viewBox="0 0 375 374.999991" height="500" preserveAspectRatio="xMidYMid meet" version="1.0"><defs><clipPath id="57d21da878"><path d="M 4.585938 32.65625 L 370.410156 32.65625 L 370.410156 337 L 4.585938 337 Z M 4.585938 32.65625 " clip-rule="nonzero"/></clipPath></defs><g clip-path="url(#57d21da878)"><path  d="M 251.316406 35.21875 C 251.714844 33.628906 253.226562 32.675781 254.816406 33.070312 C 255.851562 33.308594 256.726562 34.183594 256.964844 35.21875 C 262.058594 54.300781 274.628906 89.527344 302.320312 111.074219 C 321.574219 126.023438 344.089844 136.359375 367.960938 141.210938 C 369.550781 141.53125 370.585938 143.039062 370.265625 144.628906 C 370.027344 145.742188 369.234375 146.539062 368.199219 146.855469 C 348.785156 152.265625 315.050781 164.113281 297.941406 184.230469 C 284.417969 200.132812 272.402344 239.96875 267.152344 259.449219 C 266.671875 260.960938 265.082031 261.914062 263.570312 261.4375 C 262.617188 261.199219 261.820312 260.402344 261.582031 259.449219 C 256.171875 239.652344 242.167969 198.699219 215.992188 181.285156 C 192.597656 165.703125 166.582031 157.910156 151.859375 154.410156 C 150.269531 154.011719 149.394531 152.421875 149.792969 150.832031 C 150.03125 149.878906 150.746094 149.082031 151.703125 148.84375 C 169.445312 143.597656 202.464844 131.75 215.992188 114.015625 C 236.996094 86.503906 247.019531 53.347656 251.316406 35.21875 Z M 104.203125 198.621094 C 104.441406 197.667969 105.394531 197.109375 106.347656 197.347656 C 106.984375 197.507812 107.464844 197.984375 107.621094 198.621094 C 110.726562 210.308594 118.445312 231.859375 135.390625 244.976562 C 147.167969 254.121094 160.929688 260.402344 175.570312 263.347656 C 176.527344 263.503906 177.164062 264.460938 176.925781 265.414062 C 176.765625 266.050781 176.289062 266.605469 175.652344 266.765625 C 163.796875 270.105469 143.109375 277.261719 132.6875 289.585938 C 124.410156 299.285156 117.089844 323.699219 113.828125 335.625 C 113.589844 336.578125 112.554688 337.136719 111.679688 336.898438 C 111.042969 336.738281 110.644531 336.261719 110.40625 335.625 C 107.066406 323.539062 98.550781 298.492188 82.558594 287.835938 C 68.238281 278.292969 52.324219 273.523438 43.332031 271.378906 C 42.378906 271.136719 41.820312 270.183594 42.0625 269.230469 C 42.21875 268.59375 42.699219 268.117188 43.253906 267.957031 C 54.15625 264.699219 74.285156 257.542969 82.558594 246.648438 C 95.449219 230.03125 101.574219 209.753906 104.203125 198.621094 Z M 46.039062 65.671875 C 46.199219 65.035156 46.835938 64.640625 47.472656 64.796875 C 47.867188 64.878906 48.1875 65.195312 48.347656 65.671875 C 50.414062 73.464844 55.507812 87.699219 66.804688 96.445312 C 74.601562 102.488281 83.753906 106.703125 93.460938 108.691406 C 94.097656 108.847656 94.496094 109.40625 94.414062 110.042969 C 94.335938 110.519531 94.015625 110.835938 93.539062 110.917969 C 85.664062 113.144531 71.976562 117.914062 64.976562 126.105469 C 59.484375 132.542969 54.632812 148.765625 52.484375 156.636719 C 52.324219 157.273438 51.6875 157.589844 51.050781 157.433594 C 50.652344 157.351562 50.335938 157.035156 50.257812 156.636719 C 48.027344 148.605469 42.378906 131.988281 31.71875 124.910156 C 22.25 118.550781 11.667969 115.449219 5.621094 114.015625 C 4.984375 113.859375 4.585938 113.222656 4.746094 112.585938 C 4.824219 112.1875 5.144531 111.871094 5.539062 111.710938 C 12.78125 109.566406 26.148438 104.792969 31.636719 97.558594 C 40.152344 86.503906 44.289062 73.066406 46.039062 65.671875 Z M 46.039062 65.671875 " fill-opacity="1" fill-rule="nonzero"/></g></svg>