<svg xmlns="http://www.w3.org/2000/svg" xmlns:xlink="http://www.w3.org/1999/xlink" width="500" zoomAndPan="magnify" viewBox="0 0 375 374.999991" height="500" preserveAspectRatio="xMidYMid meet" version="1.0"><defs><clipPath id="fd98cebb54"><path d="M 29.6875 8 L 345.4375 8 L 345.4375 367 L 29.6875 367 Z M 29.6875 8 " clip-rule="nonzero"/></clipPath></defs><g clip-path="url(#fd98cebb54)"><path  d="M 58.65625 330.46875 L 29.96875 8.84375 L 345.152344 8.84375 L 316.4375 330.410156 L 187.367188 366.1875 Z M 58.65625 330.46875 " fill-opacity="1" fill-rule="nonzero"/></g><path  d="M 187.5625 338.851562 L 291.863281 309.949219 L 316.394531 35.140625 L 187.5625 35.140625 Z M 187.5625 338.851562 " fill-opacity="1" fill-rule="nonzero"/><path fill="#ffffff" d="M 187.5625 154.433594 L 135.34375 154.433594 L 131.738281 114.039062 L 187.5625 114.039062 L 187.5625 74.597656 L 88.621094 74.597656 L 89.558594 85.167969 L 99.253906 193.875 L 187.5625 193.875 Z M 187.5625 256.871094 L 187.382812 256.914062 L 143.445312 245.046875 L 140.628906 213.585938 L 101.027344 213.585938 L 106.554688 275.527344 L 187.382812 297.949219 L 187.5625 297.90625 Z M 187.5625 256.871094 " fill-opacity="1" fill-rule="nonzero"/><path fill="#ffffff" d="M 187.425781 154.433594 L 187.425781 193.875 L 236.011719 193.875 L 231.421875 245.035156 L 187.414062 256.898438 L 187.414062 297.933594 L 268.300781 275.527344 L 268.898438 268.855469 L 278.175781 165.003906 L 279.144531 154.417969 L 268.507812 154.417969 Z M 187.425781 74.597656 L 187.425781 114.039062 L 282.734375 114.039062 L 283.523438 105.164062 L 285.324219 85.167969 L 286.261719 74.582031 Z M 187.425781 74.597656 "  fill-rule="nonzero"/></svg>