<svg xmlns="http://www.w3.org/2000/svg" xmlns:xlink="http://www.w3.org/1999/xlink" width="500" zoomAndPan="magnify" viewBox="0 0 375 374.999991" height="500" preserveAspectRatio="xMidYMid meet" version="1.0"><defs><clipPath id="e6e5c095c9"><path d="M 11.175781 33 L 363.675781 33 L 363.675781 347 L 11.175781 347 Z M 11.175781 33 " clip-rule="nonzero"/></clipPath></defs><g clip-path="url(#e6e5c095c9)"><path  d="M 300.875 134.871094 C 297.125 133.585938 293.34375 132.390625 289.535156 131.292969 C 290.175781 128.675781 290.765625 126.089844 291.289062 123.546875 C 299.871094 81.824219 294.261719 48.207031 275.089844 37.140625 C 256.707031 26.53125 226.648438 37.59375 196.289062 64.046875 C 193.296875 66.65625 190.371094 69.34375 187.511719 72.105469 C 185.601562 70.269531 183.65625 68.46875 181.675781 66.707031 C 149.855469 38.421875 117.964844 26.503906 98.8125 37.601562 C 80.449219 48.246094 75.011719 79.84375 82.742188 119.390625 C 83.507812 123.304688 84.378906 127.203125 85.34375 131.074219 C 80.832031 132.359375 76.472656 133.726562 72.304688 135.179688 C 35 148.203125 11.175781 168.609375 11.175781 189.773438 C 11.175781 211.636719 36.753906 233.5625 75.605469 246.859375 C 78.757812 247.933594 81.933594 248.925781 85.132812 249.839844 C 84.09375 254.011719 83.171875 258.210938 82.367188 262.433594 C 74.996094 301.289062 80.75 332.144531 99.066406 342.71875 C 117.984375 353.640625 149.734375 342.417969 180.648438 315.359375 C 183.15625 313.160156 185.605469 310.898438 188 308.578125 C 191.09375 311.566406 194.269531 314.464844 197.523438 317.277344 C 227.472656 343.074219 257.046875 353.492188 275.34375 342.886719 C 294.242188 331.933594 300.386719 298.789062 292.410156 258.464844 C 291.78125 255.304688 291.078125 252.160156 290.296875 249.035156 C 292.527344 248.375 294.714844 247.695312 296.847656 246.988281 C 337.242188 233.589844 363.523438 211.925781 363.523438 189.773438 C 363.523438 168.53125 338.929688 147.988281 300.875 134.871094 Z M 292.117188 232.683594 C 290.1875 233.320312 288.210938 233.9375 286.199219 234.535156 C 281.738281 220.402344 275.722656 205.375 268.355469 189.847656 C 275.382812 174.691406 281.167969 159.855469 285.503906 145.8125 C 289.109375 146.855469 292.605469 147.957031 295.976562 149.121094 C 328.582031 160.359375 348.472656 176.972656 348.472656 189.773438 C 348.472656 203.410156 326.992188 221.113281 292.117188 232.683594 Z M 277.644531 261.390625 C 281.171875 279.222656 281.671875 295.34375 279.335938 307.949219 C 277.238281 319.273438 273.019531 326.824219 267.800781 329.847656 C 256.699219 336.28125 232.953125 327.917969 207.34375 305.855469 C 204.316406 303.242188 201.359375 300.542969 198.480469 297.765625 C 208.410156 286.894531 218.332031 274.257812 228.019531 260.222656 C 245.050781 258.710938 261.144531 256.234375 275.738281 252.859375 C 276.441406 255.6875 277.078125 258.53125 277.644531 261.390625 Z M 131.300781 328.734375 C 120.453125 332.570312 111.808594 332.679688 106.585938 329.664062 C 95.472656 323.25 90.851562 298.472656 97.15625 265.242188 C 97.902344 261.316406 98.761719 257.414062 99.726562 253.53125 C 114.160156 256.730469 130.136719 259.027344 147.210938 260.414062 C 156.960938 274.148438 167.167969 286.773438 177.457031 297.824219 C 175.269531 299.945312 173.03125 302.007812 170.742188 304.015625 C 157.070312 315.976562 143.375 324.464844 131.300781 328.734375 Z M 80.476562 232.597656 C 63.296875 226.71875 49.105469 219.078125 39.382812 210.742188 C 30.640625 203.25 26.230469 195.808594 26.230469 189.773438 C 26.230469 176.929688 45.355469 160.546875 77.261719 149.410156 C 81.132812 148.058594 85.183594 146.785156 89.386719 145.589844 C 93.796875 159.949219 99.582031 174.960938 106.5625 190.140625 C 99.492188 205.546875 93.625 220.796875 89.171875 235.328125 C 86.25 234.488281 83.351562 233.578125 80.476562 232.597656 Z M 97.511719 116.496094 C 90.890625 82.613281 95.289062 57.058594 106.355469 50.644531 C 118.144531 43.8125 144.207031 53.554688 171.683594 77.976562 C 173.472656 79.570312 175.234375 81.199219 176.96875 82.859375 C 166.730469 93.867188 156.617188 106.394531 146.953125 120.046875 C 130.382812 121.585938 114.519531 124.054688 99.933594 127.363281 C 99.035156 123.761719 98.230469 120.136719 97.511719 116.496094 Z M 249.5 154.066406 C 246.054688 148.109375 242.484375 142.230469 238.785156 136.425781 C 250.027344 137.847656 260.796875 139.738281 270.914062 142.046875 C 267.875 151.792969 264.09375 161.980469 259.636719 172.425781 C 256.378906 166.238281 253 160.117188 249.5 154.066406 Z M 187.519531 93.628906 C 194.460938 101.160156 201.414062 109.566406 208.253906 118.6875 C 194.378906 118.035156 180.484375 118.03125 166.609375 118.679688 C 173.457031 109.644531 180.46875 101.246094 187.519531 93.628906 Z M 125.140625 154.171875 C 121.683594 160.171875 118.367188 166.253906 115.195312 172.414062 C 110.8125 162.003906 107.0625 151.769531 104 141.886719 C 114.050781 139.636719 124.773438 137.796875 135.945312 136.398438 C 132.203125 142.238281 128.601562 148.164062 125.140625 154.171875 Z M 136.265625 244.222656 C 124.722656 242.933594 113.84375 241.1875 103.792969 238.996094 C 106.902344 228.9375 110.734375 218.484375 115.210938 207.855469 C 118.398438 214.015625 121.730469 220.101562 125.203125 226.105469 C 128.769531 232.28125 132.46875 238.324219 136.265625 244.222656 Z M 187.933594 286.980469 C 180.800781 279.273438 173.683594 270.75 166.734375 261.578125 C 173.480469 261.84375 180.359375 261.980469 187.351562 261.980469 C 194.53125 261.980469 201.632812 261.820312 208.621094 261.507812 C 201.757812 270.839844 194.832031 279.378906 187.933594 286.980469 Z M 259.777344 207.3125 C 264.488281 218.058594 268.457031 228.457031 271.609375 238.34375 C 261.394531 240.675781 250.363281 242.554688 238.742188 243.953125 C 242.464844 238.042969 246.074219 232.058594 249.558594 226.003906 C 253.101562 219.847656 256.511719 213.617188 259.777344 207.3125 Z M 236.519531 218.472656 C 231.183594 227.757812 225.546875 236.863281 219.617188 245.777344 C 208.878906 246.539062 198.117188 246.917969 187.351562 246.910156 C 176.386719 246.910156 165.71875 246.570312 155.449219 245.902344 C 149.367188 237.007812 143.621094 227.886719 138.226562 218.558594 C 132.859375 209.277344 127.84375 199.796875 123.195312 190.132812 C 127.832031 180.46875 132.832031 170.984375 138.183594 161.699219 L 138.179688 161.699219 C 143.53125 152.410156 149.230469 143.328125 155.265625 134.46875 C 165.746094 133.675781 176.488281 133.261719 187.347656 133.261719 L 187.351562 133.261719 C 198.257812 133.261719 209.019531 133.679688 219.492188 134.480469 C 225.46875 143.324219 231.132812 152.375 236.472656 161.617188 C 241.839844 170.882812 246.90625 180.324219 251.660156 189.921875 C 246.953125 199.613281 241.90625 209.140625 236.519531 218.472656 Z M 267.570312 50.195312 C 279.371094 57.007812 283.957031 84.480469 276.546875 120.503906 C 276.070312 122.804688 275.539062 125.144531 274.960938 127.519531 C 260.34375 124.140625 244.46875 121.628906 227.851562 120.066406 C 218.167969 106.265625 208.136719 93.714844 198.066406 82.851562 C 200.703125 80.304688 203.40625 77.824219 206.167969 75.410156 C 232.183594 52.75 256.496094 43.800781 267.570312 50.195312 Z M 187.351562 158.273438 C 204.726562 158.273438 218.8125 172.378906 218.8125 189.773438 C 218.8125 207.171875 204.726562 221.273438 187.351562 221.273438 C 169.972656 221.273438 155.886719 207.171875 155.886719 189.773438 C 155.886719 172.378906 169.972656 158.273438 187.351562 158.273438 Z M 187.351562 158.273438 " fill-opacity="1" fill-rule="nonzero"/></g></svg>