<svg xmlns="http://www.w3.org/2000/svg" xmlns:xlink="http://www.w3.org/1999/xlink" width="500" zoomAndPan="magnify" viewBox="0 0 375 374.999991" height="500" preserveAspectRatio="xMidYMid meet" version="1.0"><path fill="#f4f07d" d="M 163.574219 21.753906 C 81.519531 30.847656 14.65625 97.050781 4.753906 178.972656 C 4.433594 181.542969 4.167969 184.121094 3.957031 186.703125 C 3.75 189.289062 3.59375 191.875 3.496094 194.464844 C 3.398438 197.054688 3.355469 199.644531 3.367188 202.234375 C 3.378906 204.828125 3.445312 207.417969 3.570312 210.003906 C 3.691406 212.59375 3.871094 215.179688 4.105469 217.761719 C 4.339844 220.339844 4.628906 222.914062 4.972656 225.484375 C 5.316406 228.054688 5.71875 230.613281 6.171875 233.164062 C 6.625 235.714844 7.132812 238.257812 7.695312 240.785156 C 8.257812 243.316406 8.875 245.832031 9.546875 248.335938 C 10.21875 250.839844 10.941406 253.328125 11.71875 255.800781 C 12.496094 258.269531 13.328125 260.726562 14.210938 263.164062 C 15.09375 265.597656 16.027344 268.015625 17.015625 270.414062 C 18 272.808594 19.039062 275.183594 20.125 277.535156 C 21.214844 279.886719 22.351562 282.214844 23.539062 284.519531 C 24.726562 286.824219 25.964844 289.097656 27.25 291.351562 C 28.535156 293.601562 29.867188 295.820312 31.246094 298.015625 C 32.628906 300.207031 34.054688 302.371094 35.527344 304.503906 C 37.003906 306.636719 38.519531 308.734375 40.082031 310.800781 C 41.648438 312.871094 43.253906 314.902344 44.90625 316.898438 C 46.554688 318.898438 48.246094 320.859375 49.980469 322.785156 C 51.714844 324.710938 53.492188 326.597656 55.308594 328.449219 C 57.121094 330.296875 58.976562 332.109375 60.871094 333.878906 C 62.761719 335.648438 64.691406 337.378906 66.660156 339.066406 C 68.625 340.753906 70.628906 342.398438 72.667969 344 C 74.703125 345.601562 76.773438 347.15625 78.878906 348.671875 C 80.984375 350.183594 83.121094 351.652344 85.285156 353.070312 C 87.453125 354.492188 89.652344 355.867188 91.875 357.195312 C 94.101562 358.523438 96.355469 359.800781 98.636719 361.03125 C 100.917969 362.261719 103.222656 363.445312 105.554688 364.574219 C 107.886719 365.707031 110.242188 366.789062 112.621094 367.820312 C 115 368.851562 117.398438 369.832031 119.816406 370.757812 C 122.238281 371.6875 124.675781 372.5625 127.132812 373.386719 C 136.1875 374.832031 139.085938 369.222656 139.085938 364.34375 L 139.085938 333.757812 C 88.960938 344.644531 78.292969 309.523438 78.292969 309.523438 C 69.992188 288.53125 58.207031 282.921875 58.207031 282.921875 C 41.734375 271.703125 59.488281 272.074219 59.488281 272.074219 C 77.574219 273.355469 87.167969 290.710938 87.167969 290.710938 C 102.910156 318.207031 129.503906 310.0625 139.8125 305.722656 C 141.441406 293.964844 146.21875 285.996094 151.214844 281.476562 C 110.980469 276.953125 68.875 261.390625 68.875 192.472656 C 68.875 172.390625 75.753906 156.289062 87.515625 143.441406 C 85.707031 138.921875 79.367188 120.105469 89.320312 95.679688 C 89.320312 95.679688 104.523438 90.789062 139.085938 114.136719 C 146.457031 112.152344 153.929688 110.660156 161.5 109.65625 C 169.074219 108.65625 176.675781 108.15625 184.3125 108.15625 C 191.949219 108.15625 199.554688 108.65625 207.125 109.65625 C 214.695312 110.660156 222.167969 112.152344 229.542969 114.136719 C 264.128906 90.789062 279.308594 95.679688 279.308594 95.679688 C 289.246094 120.105469 282.917969 138.921875 281.113281 143.441406 C 292.871094 156.25 299.75 172.390625 299.75 192.472656 C 299.75 261.570312 257.402344 276.773438 217.066406 281.296875 C 223.574219 286.90625 229.542969 297.945312 229.542969 314.761719 L 229.542969 364.34375 C 229.542969 369.222656 232.4375 375.011719 241.671875 373.386719 C 244.296875 372.507812 246.898438 371.570312 249.476562 370.570312 C 252.058594 369.574219 254.613281 368.515625 257.144531 367.402344 C 259.675781 366.285156 262.179688 365.113281 264.660156 363.882812 C 267.136719 362.652344 269.585938 361.367188 272.003906 360.027344 C 274.421875 358.683594 276.808594 357.289062 279.164062 355.835938 C 281.519531 354.386719 283.839844 352.878906 286.125 351.324219 C 288.410156 349.765625 290.660156 348.15625 292.871094 346.496094 C 295.082031 344.835938 297.257812 343.125 299.390625 341.363281 C 301.523438 339.601562 303.617188 337.796875 305.667969 335.9375 C 307.71875 334.082031 309.726562 332.179688 311.6875 330.234375 C 313.652344 328.285156 315.570312 326.292969 317.441406 324.257812 C 319.316406 322.222656 321.140625 320.144531 322.917969 318.023438 C 324.695312 315.902344 326.421875 313.746094 328.101562 311.546875 C 329.777344 309.347656 331.40625 307.109375 332.980469 304.839844 C 334.558594 302.566406 336.078125 300.257812 337.550781 297.914062 C 339.019531 295.570312 340.433594 293.195312 341.796875 290.785156 C 343.15625 288.378906 344.464844 285.941406 345.710938 283.472656 C 346.960938 281.007812 348.152344 278.511719 349.289062 275.988281 C 350.425781 273.464844 351.5 270.917969 352.519531 268.347656 C 353.539062 265.777344 354.496094 263.183594 355.398438 260.566406 C 356.296875 257.949219 357.136719 255.316406 357.914062 252.664062 C 358.691406 250.007812 359.410156 247.335938 360.066406 244.652344 C 360.722656 241.964844 361.316406 239.261719 361.851562 236.550781 C 362.382812 233.835938 362.851562 231.109375 363.261719 228.375 C 363.667969 225.636719 364.015625 222.894531 364.296875 220.144531 C 364.578125 217.390625 364.796875 214.636719 364.953125 211.875 C 365.109375 209.113281 365.199219 206.347656 365.230469 203.582031 C 365.257812 200.816406 365.226562 198.050781 365.128906 195.289062 C 365.03125 192.523438 364.867188 189.761719 364.644531 187.007812 C 364.421875 184.25 364.132812 181.5 363.785156 178.753906 C 363.433594 176.011719 363.019531 173.277344 362.546875 170.554688 C 362.070312 167.828125 361.53125 165.117188 360.933594 162.414062 C 360.332031 159.714844 359.671875 157.03125 358.949219 154.359375 C 358.226562 151.691406 357.441406 149.039062 356.597656 146.40625 C 355.753906 143.769531 354.851562 141.15625 353.886719 138.566406 C 352.921875 135.972656 351.898438 133.402344 350.816406 130.859375 C 349.734375 128.3125 348.597656 125.792969 347.398438 123.300781 C 346.203125 120.804688 344.949219 118.339844 343.636719 115.90625 C 342.328125 113.46875 340.960938 111.0625 339.542969 108.691406 C 338.121094 106.316406 336.648438 103.976562 335.121094 101.671875 C 333.59375 99.367188 332.011719 97.09375 330.382812 94.863281 C 328.75 92.628906 327.066406 90.433594 325.335938 88.277344 C 323.605469 86.121094 321.824219 84.003906 319.996094 81.929688 C 318.164062 79.855469 316.289062 77.824219 314.367188 75.832031 C 312.445312 73.84375 310.476562 71.902344 308.46875 70.003906 C 306.457031 68.101562 304.402344 66.25 302.304688 64.445312 C 300.210938 62.640625 298.074219 60.886719 295.894531 59.179688 C 293.71875 57.472656 291.503906 55.816406 289.253906 54.210938 C 287 52.605469 284.710938 51.050781 282.386719 49.550781 C 280.066406 48.050781 277.707031 46.605469 275.316406 45.210938 C 272.929688 43.820312 270.507812 42.480469 268.054688 41.199219 C 265.605469 39.917969 263.125 38.691406 260.617188 37.523438 C 258.109375 36.355469 255.578125 35.246094 253.019531 34.195312 C 250.460938 33.144531 247.878906 32.148438 245.277344 31.214844 C 242.671875 30.28125 240.050781 29.410156 237.40625 28.59375 C 234.761719 27.78125 232.101562 27.027344 229.421875 26.335938 C 226.742188 25.644531 224.050781 25.015625 221.34375 24.445312 C 218.636719 23.878906 215.917969 23.371094 213.1875 22.929688 C 210.457031 22.484375 207.71875 22.105469 204.96875 21.785156 C 202.222656 21.46875 199.46875 21.210938 196.710938 21.019531 C 193.949219 20.828125 191.1875 20.699219 188.421875 20.632812 C 185.65625 20.566406 182.890625 20.566406 180.125 20.625 C 177.359375 20.6875 174.597656 20.8125 171.835938 21 C 169.078125 21.1875 166.324219 21.4375 163.574219 21.753906 Z M 163.574219 21.753906 " fill-opacity="1" fill-rule="nonzero"/></svg>