<svg xmlns="http://www.w3.org/2000/svg" xmlns:xlink="http://www.w3.org/1999/xlink" width="500" zoomAndPan="magnify" viewBox="0 0 375 374.999991" height="500" preserveAspectRatio="xMidYMid meet" version="1.0"><defs><clipPath id="a75c83bd4a"><path d="M 6 32 L 357.640625 32 L 357.640625 325 L 6 325 Z M 6 32 " clip-rule="nonzero"/></clipPath></defs><g clip-path="url(#a75c83bd4a)"><path  d="M 120.515625 34.230469 C 120.132812 32.699219 118.679688 31.78125 117.152344 32.164062 C 116.15625 32.394531 115.316406 33.238281 115.085938 34.230469 C 110.191406 52.609375 98.109375 86.535156 71.5 107.289062 C 52.996094 121.683594 31.355469 131.640625 8.414062 136.3125 C 6.886719 136.617188 5.890625 138.074219 6.195312 139.605469 C 6.425781 140.675781 7.191406 141.441406 8.183594 141.75 C 26.84375 146.957031 59.265625 158.367188 75.707031 177.742188 C 88.707031 193.058594 100.25 231.421875 105.296875 250.183594 C 105.757812 251.640625 107.285156 252.558594 108.738281 252.097656 C 109.65625 251.871094 110.421875 251.105469 110.652344 250.183594 C 115.851562 231.117188 129.308594 191.679688 154.46875 174.90625 C 176.949219 159.898438 201.953125 152.394531 216.101562 149.023438 C 217.628906 148.640625 218.46875 147.109375 218.089844 145.578125 C 217.859375 144.660156 217.171875 143.894531 216.253906 143.664062 C 199.199219 138.609375 167.464844 127.199219 154.46875 110.121094 C 134.28125 83.625 124.644531 51.691406 120.515625 34.230469 Z M 261.902344 191.601562 C 261.675781 190.683594 260.757812 190.148438 259.839844 190.375 C 259.226562 190.53125 258.769531 190.988281 258.617188 191.601562 C 255.632812 202.859375 248.214844 223.613281 231.929688 236.246094 C 220.613281 245.054688 207.382812 251.105469 193.3125 253.9375 C 192.394531 254.089844 191.785156 255.007812 192.011719 255.929688 C 192.164062 256.542969 192.625 257.078125 193.234375 257.230469 C 204.628906 260.445312 224.511719 267.339844 234.527344 279.207031 C 242.480469 288.550781 249.515625 312.0625 252.652344 323.546875 C 252.878906 324.464844 253.875 325.003906 254.714844 324.773438 C 255.328125 324.621094 255.710938 324.160156 255.9375 323.546875 C 259.152344 311.90625 267.332031 287.785156 282.703125 277.523438 C 296.46875 268.335938 311.761719 263.738281 320.402344 261.671875 C 321.320312 261.441406 321.855469 260.523438 321.625 259.605469 C 321.472656 258.992188 321.011719 258.53125 320.476562 258.378906 C 310 255.238281 290.65625 248.347656 282.703125 237.855469 C 270.316406 221.851562 264.425781 202.324219 261.902344 191.601562 Z M 317.800781 63.5625 C 317.648438 62.949219 317.035156 62.566406 316.425781 62.71875 C 316.042969 62.796875 315.738281 63.101562 315.582031 63.5625 C 313.597656 71.066406 308.703125 84.773438 297.84375 93.199219 C 290.351562 99.019531 281.554688 103.078125 272.226562 104.992188 C 271.613281 105.144531 271.234375 105.679688 271.308594 106.292969 C 271.386719 106.753906 271.691406 107.058594 272.152344 107.136719 C 279.722656 109.28125 292.875 113.875 299.601562 121.761719 C 304.878906 127.964844 309.542969 143.585938 311.609375 151.167969 C 311.761719 151.78125 312.371094 152.085938 312.984375 151.933594 C 313.367188 151.859375 313.671875 151.550781 313.75 151.167969 C 315.890625 143.433594 321.320312 127.429688 331.566406 120.613281 C 340.664062 114.488281 350.835938 111.5 356.648438 110.121094 C 357.257812 109.96875 357.640625 109.355469 357.488281 108.742188 C 357.410156 108.359375 357.105469 108.054688 356.722656 107.902344 C 349.765625 105.832031 336.917969 101.238281 331.640625 94.269531 C 323.460938 83.625 319.484375 70.683594 317.800781 63.5625 Z M 317.800781 63.5625 " fill-opacity="1" fill="#daba02" fill-rule="nonzero"/></g></svg>